<svg class="animated" id="freepik_stories-crypto-portfolio" xmlns="http://www.w3.org/2000/svg" viewBox="0 0 500 500" version="1.1" xmlns:xlink="http://www.w3.org/1999/xlink" xmlns:svgjs="http://svgjs.com/svgjs"><style>svg#freepik_stories-crypto-portfolio:not(.animated) .animable {opacity: 0;}svg#freepik_stories-crypto-portfolio.animated #freepik--Plant--inject-231 {animation: 1.5s Infinite  linear floating;animation-delay: 0s;}svg#freepik_stories-crypto-portfolio.animated #freepik--App--inject-231 {animation: 1.5s Infinite  linear floating;animation-delay: 0s;}svg#freepik_stories-crypto-portfolio.animated #freepik--Character--inject-231 {animation: 1.5s Infinite  linear floating;animation-delay: 0s;}            @keyframes floating {                0% {                    opacity: 1;                    transform: translateY(0px);                }                50% {                    transform: translateY(-10px);                }                100% {                    opacity: 1;                    transform: translateY(0px);                }            }        </style><g id="freepik--background-simple--inject-231" class="animable" style="transform-origin: 240.903px 237.732px;"><path d="M448.13,114.62c-20.86-34.3-66.9-59.24-102.72-72-45.45-16.14-95.3-32.08-144-24.18-38.9,6.32-76.4,28.64-94.7,63.55C82,129.24,95.1,190.39,67.11,235.75,53.76,257.37,32,273.58,22.28,297.06a69.36,69.36,0,0,0,1,54.49c4.06,8.89,10.19,17,18.46,22.23,16.61,10.44,38.24,7.39,56.88,13.5s33.12,21.05,48.06,34c23.89,20.68,53,38,84.65,37.83,46.09-.25,85.85-37.19,131.94-37.91,19.95-.32,40.49,6.21,59.46,0C466.5,407,470.58,346.6,459.2,310c-7.58-24.39-32-50.48-30.68-76.44,1-19.87,17.81-35.43,24.3-53.57C460.7,157.91,460.53,135,448.13,114.62Z" style="fill: rgb(61, 44, 141); transform-origin: 240.903px 237.732px;" id="elt1pejlvqcz" class="animable"></path><g id="el5qkz8bw18bb"><path d="M448.13,114.62c-20.86-34.3-66.9-59.24-102.72-72-45.45-16.14-95.3-32.08-144-24.18-38.9,6.32-76.4,28.64-94.7,63.55C82,129.24,95.1,190.39,67.11,235.75,53.76,257.37,32,273.58,22.28,297.06a69.36,69.36,0,0,0,1,54.49c4.06,8.89,10.19,17,18.46,22.23,16.61,10.44,38.24,7.39,56.88,13.5s33.12,21.05,48.06,34c23.89,20.68,53,38,84.65,37.83,46.09-.25,85.85-37.19,131.94-37.91,19.95-.32,40.49,6.21,59.46,0C466.5,407,470.58,346.6,459.2,310c-7.58-24.39-32-50.48-30.68-76.44,1-19.87,17.81-35.43,24.3-53.57C460.7,157.91,460.53,135,448.13,114.62Z" style="fill: rgb(255, 255, 255); opacity: 0.7; transform-origin: 240.903px 237.732px;" class="animable"></path></g></g><g id="freepik--Graphics--inject-231" class="animable" style="transform-origin: 247.925px 217.49px;"><g id="elfwn4ysf97mb"><g style="opacity: 0.2; transform-origin: 143.99px 112.23px;" class="animable"><path d="M145.84,115.48h-3.52v12.76h3.52c5.27,0,6.91-2.38,6.91-6.59S151.11,115.48,145.84,115.48Z" style="fill: none; stroke: rgb(0, 0, 0); stroke-miterlimit: 10; transform-origin: 147.535px 121.86px;" id="elc6li4ee7m75" class="animable"></path><path d="M144,67.45a44.78,44.78,0,1,0,44.77,44.78A44.78,44.78,0,0,0,144,67.45Zm0,83a38.19,38.19,0,1,1,38.18-38.18A38.23,38.23,0,0,1,144,150.41Z" style="fill: none; stroke: rgb(0, 0, 0); stroke-miterlimit: 10; transform-origin: 143.99px 112.23px;" id="elu5hrhh7h6k" class="animable"></path><path d="M151.74,103.48c0-3.71-1.63-5.53-6.28-5.53h-3.14v11.19h3.14C150.05,109.14,151.74,107.19,151.74,103.48Z" style="fill: none; stroke: rgb(0, 0, 0); stroke-miterlimit: 10; transform-origin: 147.03px 103.545px;" id="el3axl5zhic0x" class="animable"></path><path d="M144,76.67a35.56,35.56,0,1,0,35.55,35.56A35.6,35.6,0,0,0,144,76.67Zm7.12,56.4v8h-4.52v-7.66h-4.2v7.65h-4.52V133.4H127.79v-6h2a2,2,0,0,0,1.69-1.75V100.25a2,2,0,0,0-1.69-1.75h-2v-6h10.07v-7.7h4.52v7.7h4.2V84.85h4.52v8c7.13,1,10.89,4.34,10.89,10.16,0,5.14-2.92,7.65-8.29,8.76V112c6.24.94,9.69,4,9.69,9.52C163.39,128.18,158.77,132,151.1,133.07Z" style="fill: none; stroke: rgb(0, 0, 0); stroke-miterlimit: 10; transform-origin: 143.99px 112.23px;" id="ela7cn2p8i1t4" class="animable"></path></g></g><g id="elml5jt5wj7m"><g style="opacity: 0.2; transform-origin: 439.375px 78.22px;" class="animable"><polygon points="438.94 99 438.94 24.98 473.07 80.39 438.94 99" style="fill: none; stroke: rgb(0, 0, 0); stroke-miterlimit: 10; transform-origin: 456.005px 61.99px;" id="eliykhm81dcid" class="animable"></polygon><polyline points="438.94 99 405.7 79.94 438.94 24.98" style="fill: none; stroke: rgb(0, 0, 0); stroke-miterlimit: 10; transform-origin: 422.32px 61.99px;" id="eloop3jht35h" class="animable"></polyline><polyline points="405.7 79.94 438.5 65.32 473.07 80.39" style="fill: none; stroke: rgb(0, 0, 0); stroke-miterlimit: 10; transform-origin: 439.385px 72.855px;" id="elh8hj93hpryg" class="animable"></polyline><polygon points="406.68 85.81 439.36 104.65 472.73 85.35 439.14 130.98 406.68 85.81" style="fill: none; stroke: rgb(0, 0, 0); stroke-miterlimit: 10; transform-origin: 439.705px 108.165px;" id="el7tsxqvp8mr" class="animable"></polygon><line x1="439.36" y1="104.65" x2="439.36" y2="130.98" style="fill: none; stroke: rgb(0, 0, 0); stroke-miterlimit: 10; transform-origin: 439.36px 117.815px;" id="eliqe951f4xs" class="animable"></line><path d="M407.55,79.94a1.86,1.86,0,1,0-1.85,1.86A1.85,1.85,0,0,0,407.55,79.94Z" style="fill: none; stroke: rgb(0, 0, 0); stroke-miterlimit: 10; transform-origin: 405.69px 79.94px;" id="elpdv88b3djvj" class="animable"></path><path d="M440.76,98.29a1.85,1.85,0,1,0-1.85,1.86A1.85,1.85,0,0,0,440.76,98.29Z" style="fill: none; stroke: rgb(0, 0, 0); stroke-miterlimit: 10; transform-origin: 438.91px 98.3px;" id="elxczsweij7u" class="animable"></path><path d="M474.92,80.39a1.86,1.86,0,1,0-1.85,1.85A1.85,1.85,0,0,0,474.92,80.39Z" style="fill: none; stroke: rgb(0, 0, 0); stroke-miterlimit: 10; transform-origin: 473.06px 80.38px;" id="elo909own4kji" class="animable"></path><path d="M440.65,25.46a1.86,1.86,0,1,0-1.86,1.85A1.86,1.86,0,0,0,440.65,25.46Z" style="fill: none; stroke: rgb(0, 0, 0); stroke-miterlimit: 10; transform-origin: 438.79px 25.45px;" id="elsh01s5xujs" class="animable"></path><path d="M440.65,103.51a1.86,1.86,0,1,0-1.86,1.86A1.85,1.85,0,0,0,440.65,103.51Z" style="fill: none; stroke: rgb(0, 0, 0); stroke-miterlimit: 10; transform-origin: 438.79px 103.51px;" id="elru107y32l8" class="animable"></path><path d="M440.65,65.46a1.86,1.86,0,1,0-1.86,1.86A1.85,1.85,0,0,0,440.65,65.46Z" style="fill: none; stroke: rgb(0, 0, 0); stroke-miterlimit: 10; transform-origin: 438.79px 65.46px;" id="el74erg6sdu0f" class="animable"></path><path d="M474.55,85.13A1.86,1.86,0,1,0,472.69,87,1.86,1.86,0,0,0,474.55,85.13Z" style="fill: none; stroke: rgb(0, 0, 0); stroke-miterlimit: 10; transform-origin: 472.69px 85.14px;" id="elbz2tuhc22xw" class="animable"></path><path d="M441,131a1.86,1.86,0,1,0-1.85,1.85A1.85,1.85,0,0,0,441,131Z" style="fill: none; stroke: rgb(0, 0, 0); stroke-miterlimit: 10; transform-origin: 439.14px 130.99px;" id="elozo8n8gj7p" class="animable"></path><path d="M408.3,85.35a1.85,1.85,0,1,0-1.85,1.86A1.85,1.85,0,0,0,408.3,85.35Z" style="fill: none; stroke: rgb(0, 0, 0); stroke-miterlimit: 10; transform-origin: 406.45px 85.36px;" id="el1uyqgt881sq" class="animable"></path></g></g><g id="elpo5qvm4jh5g"><g style="opacity: 0.2; transform-origin: 42.21px 378.695px;" class="animable"><polygon points="41.95 391.14 41.95 346.83 62.38 380 41.95 391.14" style="fill: none; stroke: rgb(0, 0, 0); stroke-miterlimit: 10; transform-origin: 52.165px 368.985px;" id="el5p1kfl5467w" class="animable"></polygon><polyline points="41.95 391.14 22.04 379.73 41.95 346.83" style="fill: none; stroke: rgb(0, 0, 0); stroke-miterlimit: 10; transform-origin: 31.995px 368.985px;" id="el5dao39h10ox" class="animable"></polyline><polyline points="22.04 379.73 41.68 370.97 62.38 380" style="fill: none; stroke: rgb(0, 0, 0); stroke-miterlimit: 10; transform-origin: 42.21px 375.485px;" id="elrsxz2e89omn" class="animable"></polyline><polygon points="22.63 383.24 42.2 394.52 62.17 382.97 42.06 410.28 22.63 383.24" style="fill: none; stroke: rgb(0, 0, 0); stroke-miterlimit: 10; transform-origin: 42.4px 396.625px;" id="el1mfdsav3jwx" class="animable"></polygon><line x1="42.2" y1="394.52" x2="42.2" y2="410.28" style="fill: none; stroke: rgb(0, 0, 0); stroke-miterlimit: 10; transform-origin: 42.2px 402.4px;" id="elqmx4rrhqj2" class="animable"></line><path d="M23.15,379.73A1.11,1.11,0,1,0,22,380.84,1.11,1.11,0,0,0,23.15,379.73Z" style="fill: none; stroke: rgb(0, 0, 0); stroke-miterlimit: 10; transform-origin: 22.04px 379.731px;" id="elewf9vpndtme" class="animable"></path><circle cx="41.93" cy="390.72" r="1.11" style="fill: none; stroke: rgb(0, 0, 0); stroke-miterlimit: 10; transform-origin: 41.93px 390.72px;" id="elbf4mgnglbdt" class="animable"></circle><path d="M63.49,380a1.11,1.11,0,1,0-1.11,1.11A1.11,1.11,0,0,0,63.49,380Z" style="fill: none; stroke: rgb(0, 0, 0); stroke-miterlimit: 10; transform-origin: 62.38px 380px;" id="elw3kb3cq3neh" class="animable"></path><path d="M43,347.11a1.11,1.11,0,1,0-1.11,1.11A1.11,1.11,0,0,0,43,347.11Z" style="fill: none; stroke: rgb(0, 0, 0); stroke-miterlimit: 10; transform-origin: 41.89px 347.11px;" id="el8myr94edyx9" class="animable"></path><path d="M43,393.84A1.11,1.11,0,1,0,41.86,395,1.11,1.11,0,0,0,43,393.84Z" style="fill: none; stroke: rgb(0, 0, 0); stroke-miterlimit: 10; transform-origin: 41.8911px 393.89px;" id="el8orir76qw5f" class="animable"></path><path d="M43,371.06a1.11,1.11,0,1,0-2.22,0,1.11,1.11,0,1,0,2.22,0Z" style="fill: none; stroke: rgb(0, 0, 0); stroke-miterlimit: 10; transform-origin: 41.89px 371.06px;" id="el79lfmd60vjc" class="animable"></path><path d="M63.26,382.83a1.11,1.11,0,1,0-1.11,1.11A1.11,1.11,0,0,0,63.26,382.83Z" style="fill: none; stroke: rgb(0, 0, 0); stroke-miterlimit: 10; transform-origin: 62.15px 382.83px;" id="elbp19wubytvo" class="animable"></path><circle cx="42.06" cy="410.28" r="1.11" style="fill: none; stroke: rgb(0, 0, 0); stroke-miterlimit: 10; transform-origin: 42.06px 410.28px;" id="el5zc7tpw559" class="animable"></circle><path d="M23.6,383a1.11,1.11,0,1,0-1.11,1.11A1.11,1.11,0,0,0,23.6,383Z" style="fill: none; stroke: rgb(0, 0, 0); stroke-miterlimit: 10; transform-origin: 22.49px 383px;" id="eljx0c9hs9cnn" class="animable"></path></g></g><g id="elpz2w9at40d"><path d="M456.36,208.91c-2-.16-4-.39-5.52-1.57a5.71,5.71,0,0,1-2.18-5.17,5.85,5.85,0,0,1,3.35-4.52c1.66-.75,3.54-.68,5.34-.92a15.59,15.59,0,1,0-16.82-10.53c.67,2,1.75,3.9,2.32,6s.51,4.45-.87,6.07c-2.18,2.52-6.41,1.8-9.07-.21s-4.49-4.95-7.14-7a14.68,14.68,0,0,0-13.2-2.08c-12.13,3.93-14.94,20.81-4.06,28a16,16,0,0,0,19.62-2.09c1.71-1.74,3-3.88,4.82-5.51s4.45-2.73,6.7-1.79c2.57,1.06,3.55,4.29,3.28,7.06s-1.45,5.38-1.85,8.13a15.28,15.28,0,0,0,6,14.22,15.91,15.91,0,0,0,15.41,1.67,16.13,16.13,0,0,0,9.4-16,15.62,15.62,0,0,0-12.75-13.4C458.26,209.05,457.31,209,456.36,208.91Z" style="fill: none; stroke: rgb(0, 0, 0); stroke-miterlimit: 10; opacity: 0.2; transform-origin: 436.832px 202.807px;" class="animable"></path></g><g id="ely21932tm2kq"><path d="M74.7,55a7.22,7.22,0,0,1-3.87-1.1,4,4,0,0,1-1.52-3.62,4.13,4.13,0,0,1,2.35-3.17,13.33,13.33,0,0,1,3.74-.64,11.2,11.2,0,0,0,9.23-8.51,10.91,10.91,0,1,0-21,1.14c.47,1.41,1.23,2.72,1.63,4.16a4.68,4.68,0,0,1-.61,4.25c-1.52,1.77-4.49,1.26-6.35-.14s-3.15-3.47-5-4.88A10.27,10.27,0,0,0,44,41c-8.49,2.75-10.46,14.57-2.84,19.59a11.23,11.23,0,0,0,13.74-1.47c1.2-1.22,2.1-2.71,3.37-3.86S61.42,53.34,63,54c1.8.75,2.49,3,2.3,5s-1,3.76-1.3,5.69a10.7,10.7,0,0,0,4.22,10A11.16,11.16,0,0,0,79,75.77,11.29,11.29,0,0,0,85.6,64.54a10.94,10.94,0,0,0-8.93-9.38C76,55.06,75.36,55,74.7,55Z" style="fill: none; stroke: rgb(0, 0, 0); stroke-miterlimit: 10; opacity: 0.2; transform-origin: 61.0224px 50.6991px;" class="animable"></path></g></g><g id="freepik--Plant--inject-231" class="animable" style="transform-origin: 442.203px 331.85px;"><line x1="420.39" y1="257.38" x2="436.37" y2="410.52" style="fill: none; stroke: rgb(38, 50, 56); stroke-miterlimit: 10; stroke-width: 2px; transform-origin: 428.38px 333.95px;" id="el8k3o1xl008s" class="animable"></line><line x1="433.8" y1="381.21" x2="426.55" y2="373.56" style="fill: none; stroke: rgb(38, 50, 56); stroke-miterlimit: 10; stroke-width: 2px; transform-origin: 430.175px 377.385px;" id="el8he2dynt2x" class="animable"></line><path d="M428.75,375.85a8.21,8.21,0,0,0-2.88-6.15c-1.86-1.66-11.65-5.77-12.58-2.33C412.28,371.12,422.3,378.49,428.75,375.85Z" style="fill: rgb(61, 44, 141); stroke: rgb(38, 50, 56); stroke-miterlimit: 10; transform-origin: 420.985px 371.223px;" id="el0sy448goansi" class="animable"></path><line x1="428.75" y1="375.85" x2="419.43" y2="370.04" style="fill: none; stroke: rgb(38, 50, 56); stroke-miterlimit: 10; stroke-width: 0.5px; transform-origin: 424.09px 372.945px;" id="elbkur0f6y9vr" class="animable"></line><line x1="435.61" y1="398.63" x2="428.37" y2="390.97" style="fill: none; stroke: rgb(38, 50, 56); stroke-miterlimit: 10; stroke-width: 2px; transform-origin: 431.99px 394.8px;" id="elqtlktqzlou" class="animable"></line><path d="M430.57,393.27a8.19,8.19,0,0,0-2.89-6.15c-1.85-1.66-11.64-5.78-12.57-2.33C414.1,388.54,424.12,395.9,430.57,393.27Z" style="fill: rgb(61, 44, 141); stroke: rgb(38, 50, 56); stroke-miterlimit: 10; transform-origin: 422.805px 388.639px;" id="elghbt7datqg" class="animable"></path><line x1="430.57" y1="393.27" x2="421.25" y2="387.46" style="fill: none; stroke: rgb(38, 50, 56); stroke-miterlimit: 10; stroke-width: 0.5px; transform-origin: 425.91px 390.365px;" id="eluhtmj85s2i" class="animable"></line><line x1="429.36" y1="338.71" x2="422.11" y2="331.06" style="fill: none; stroke: rgb(38, 50, 56); stroke-miterlimit: 10; stroke-width: 2px; transform-origin: 425.735px 334.885px;" id="elmj9enk8bpvc" class="animable"></line><path d="M424.32,333.35a8.22,8.22,0,0,0-2.89-6.14c-1.86-1.67-11.65-5.78-12.57-2.34C407.85,328.62,417.86,336,424.32,333.35Z" style="fill: rgb(61, 44, 141); stroke: rgb(38, 50, 56); stroke-miterlimit: 10; transform-origin: 416.555px 328.724px;" id="elc3a7i22ha6" class="animable"></path><line x1="424.32" y1="333.35" x2="415" y2="327.54" style="fill: none; stroke: rgb(38, 50, 56); stroke-miterlimit: 10; stroke-width: 0.5px; transform-origin: 419.66px 330.445px;" id="elifwkca09k5o" class="animable"></line><line x1="431.18" y1="356.13" x2="423.93" y2="348.47" style="fill: none; stroke: rgb(38, 50, 56); stroke-miterlimit: 10; stroke-width: 2px; transform-origin: 427.555px 352.3px;" id="el58c6oumaxvc" class="animable"></line><path d="M426.13,350.77a8.2,8.2,0,0,0-2.88-6.15c-1.86-1.66-11.65-5.78-12.58-2.33C409.66,346,419.68,353.4,426.13,350.77Z" style="fill: rgb(61, 44, 141); stroke: rgb(38, 50, 56); stroke-miterlimit: 10; transform-origin: 418.365px 346.138px;" id="eljn23rh2270k" class="animable"></path><line x1="426.13" y1="350.77" x2="416.82" y2="344.96" style="fill: none; stroke: rgb(38, 50, 56); stroke-miterlimit: 10; stroke-width: 0.5px; transform-origin: 421.475px 347.865px;" id="eltep386e88ra" class="animable"></line><line x1="426.41" y1="310.42" x2="419.16" y2="302.77" style="fill: none; stroke: rgb(38, 50, 56); stroke-miterlimit: 10; stroke-width: 2px; transform-origin: 422.785px 306.595px;" id="elf7f5814e1lq" class="animable"></line><path d="M421.36,305.06a8.2,8.2,0,0,0-2.88-6.15c-1.86-1.66-11.65-5.77-12.58-2.33C404.89,300.33,414.91,307.69,421.36,305.06Z" style="fill: rgb(61, 44, 141); stroke: rgb(38, 50, 56); stroke-miterlimit: 10; transform-origin: 413.595px 300.431px;" id="elwy53a93rwps" class="animable"></path><line x1="421.36" y1="305.06" x2="412.05" y2="299.25" style="fill: none; stroke: rgb(38, 50, 56); stroke-miterlimit: 10; stroke-width: 0.5px; transform-origin: 416.705px 302.155px;" id="elzx74754mwbm" class="animable"></line><line x1="423.44" y1="282" x2="416.2" y2="274.35" style="fill: none; stroke: rgb(38, 50, 56); stroke-miterlimit: 10; stroke-width: 2px; transform-origin: 419.82px 278.175px;" id="elj82xk3evu68" class="animable"></line><path d="M418.4,276.64a8.22,8.22,0,0,0-2.89-6.14c-1.86-1.66-11.64-5.78-12.57-2.33C401.93,271.92,412,279.28,418.4,276.64Z" style="fill: rgb(61, 44, 141); stroke: rgb(38, 50, 56); stroke-miterlimit: 10; transform-origin: 410.635px 272.016px;" id="elo406rdc4voq" class="animable"></path><line x1="418.4" y1="276.64" x2="409.08" y2="270.84" style="fill: none; stroke: rgb(38, 50, 56); stroke-miterlimit: 10; stroke-width: 0.5px; transform-origin: 413.74px 273.74px;" id="elkfbjs1sik9" class="animable"></line><line x1="432.58" y1="370.91" x2="438.09" y2="361.92" style="fill: none; stroke: rgb(38, 50, 56); stroke-miterlimit: 10; stroke-width: 2px; transform-origin: 435.335px 366.415px;" id="elqub06hfk0l" class="animable"></line><path d="M436.41,364.62A8.17,8.17,0,0,1,438,358c1.48-2,10.2-8.06,11.82-4.88C451.54,356.59,443.26,365.87,436.41,364.62Z" style="fill: rgb(61, 44, 141); stroke: rgb(38, 50, 56); stroke-miterlimit: 10; transform-origin: 443.153px 358.475px;" id="elsp5mkl59ggi" class="animable"></path><line x1="436.41" y1="364.62" x2="444.8" y2="356.6" style="fill: none; stroke: rgb(38, 50, 56); stroke-miterlimit: 10; stroke-width: 0.5px; transform-origin: 440.605px 360.61px;" id="elmqtonwtueta" class="animable"></line><line x1="427.79" y1="325.07" x2="433.3" y2="316.09" style="fill: none; stroke: rgb(38, 50, 56); stroke-miterlimit: 10; stroke-width: 2px; transform-origin: 430.545px 320.58px;" id="elckoty84kafd" class="animable"></line><path d="M431.62,318.79a8.2,8.2,0,0,1,1.56-6.61c1.47-2,10.2-8.06,11.82-4.88C446.76,310.76,438.48,320,431.62,318.79Z" style="fill: rgb(61, 44, 141); stroke: rgb(38, 50, 56); stroke-miterlimit: 10; transform-origin: 438.352px 312.646px;" id="el3k3bt95dl7f" class="animable"></path><line x1="431.62" y1="318.79" x2="440.01" y2="310.77" style="fill: none; stroke: rgb(38, 50, 56); stroke-miterlimit: 10; stroke-width: 0.5px; transform-origin: 435.815px 314.78px;" id="ely9sallxpbgs" class="animable"></line><line x1="425.69" y1="304.93" x2="431.2" y2="295.95" style="fill: none; stroke: rgb(38, 50, 56); stroke-miterlimit: 10; stroke-width: 2px; transform-origin: 428.445px 300.44px;" id="elnoiu0c48hw" class="animable"></line><path d="M429.52,298.65a8.22,8.22,0,0,1,1.55-6.61c1.48-2,10.21-8.06,11.83-4.88C444.66,290.62,436.38,299.89,429.52,298.65Z" style="fill: rgb(61, 44, 141); stroke: rgb(38, 50, 56); stroke-miterlimit: 10; transform-origin: 436.252px 292.509px;" id="el9zbwv7m0xn" class="animable"></path><line x1="429.52" y1="298.65" x2="437.91" y2="290.63" style="fill: none; stroke: rgb(38, 50, 56); stroke-miterlimit: 10; stroke-width: 0.5px; transform-origin: 433.715px 294.64px;" id="elfr9obehrvx7" class="animable"></line><line x1="422.61" y1="275.41" x2="428.12" y2="266.42" style="fill: none; stroke: rgb(38, 50, 56); stroke-miterlimit: 10; stroke-width: 2px; transform-origin: 425.365px 270.915px;" id="el1a7x7ljayfp" class="animable"></line><path d="M426.44,269.12a8.22,8.22,0,0,1,1.55-6.61c1.48-2,10.21-8.06,11.83-4.88C441.58,261.09,433.3,270.37,426.44,269.12Z" style="fill: rgb(61, 44, 141); stroke: rgb(38, 50, 56); stroke-miterlimit: 10; transform-origin: 433.172px 262.98px;" id="el4v6wjyl1b12" class="animable"></path><line x1="426.44" y1="269.12" x2="434.83" y2="261.1" style="fill: none; stroke: rgb(38, 50, 56); stroke-miterlimit: 10; stroke-width: 0.5px; transform-origin: 430.635px 265.11px;" id="elz39tbq3dwbm" class="animable"></line><path d="M420.25,256.53a8.2,8.2,0,0,1,1.56-6.61c1.47-2,10.2-8.06,11.82-4.88C435.39,248.5,427.11,257.77,420.25,256.53Z" style="fill: rgb(61, 44, 141); stroke: rgb(38, 50, 56); stroke-miterlimit: 10; transform-origin: 426.982px 250.389px;" id="elbzun5rvhejo" class="animable"></path><line x1="420.25" y1="256.53" x2="428.64" y2="248.51" style="fill: none; stroke: rgb(38, 50, 56); stroke-miterlimit: 10; stroke-width: 0.5px; transform-origin: 424.445px 252.52px;" id="el9cgztf6v26p" class="animable"></line><path d="M420.74,256.87a8.19,8.19,0,0,1-6.41-2.23c-1.84-1.68-6.94-11-3.61-12.27C414.35,241,422.7,250.18,420.74,256.87Z" style="fill: rgb(61, 44, 141); stroke: rgb(38, 50, 56); stroke-miterlimit: 10; transform-origin: 415.326px 249.569px;" id="elj3k4qkhzmo" class="animable"></path><line x1="420.74" y1="256.87" x2="413.65" y2="247.69" style="fill: none; stroke: rgb(38, 50, 56); stroke-miterlimit: 10; stroke-width: 0.5px; transform-origin: 417.195px 252.28px;" id="elffjol8dc4e" class="animable"></line><line x1="462.54" y1="278.47" x2="446.65" y2="431.62" style="fill: none; stroke: rgb(38, 50, 56); stroke-miterlimit: 10; stroke-width: 2px; transform-origin: 454.595px 355.045px;" id="elk5wjbrqqqy" class="animable"></line><line x1="450.16" y1="402.41" x2="444.65" y2="393.43" style="fill: none; stroke: rgb(38, 50, 56); stroke-miterlimit: 10; stroke-width: 2px; transform-origin: 447.405px 397.92px;" id="elanlleibym3" class="animable"></line><path d="M446.33,396.12a8.18,8.18,0,0,0-1.56-6.6c-1.47-2-10.2-8.06-11.82-4.88C431.19,388.11,439.48,397.37,446.33,396.12Z" style="fill: rgb(61, 44, 141); stroke: rgb(38, 50, 56); stroke-miterlimit: 10; transform-origin: 439.598px 389.985px;" id="elotruqtrcf9e" class="animable"></path><line x1="446.33" y1="396.12" x2="438.41" y2="388.52" style="fill: none; stroke: rgb(38, 50, 56); stroke-miterlimit: 10; stroke-width: 0.5px; transform-origin: 442.37px 392.32px;" id="elb3r29qjdwz" class="animable"></line><line x1="454.57" y1="359.9" x2="449.06" y2="350.92" style="fill: none; stroke: rgb(38, 50, 56); stroke-miterlimit: 10; stroke-width: 2px; transform-origin: 451.815px 355.41px;" id="elpbql678lem" class="animable"></line><path d="M450.74,353.62a8.2,8.2,0,0,0-1.56-6.61c-1.47-2-10.2-8.05-11.82-4.87C435.6,345.6,443.89,354.87,450.74,353.62Z" style="fill: rgb(61, 44, 141); stroke: rgb(38, 50, 56); stroke-miterlimit: 10; transform-origin: 444.008px 347.484px;" id="el4pd852c6kdb" class="animable"></path><line x1="450.74" y1="353.62" x2="442.82" y2="346.02" style="fill: none; stroke: rgb(38, 50, 56); stroke-miterlimit: 10; stroke-width: 0.5px; transform-origin: 446.78px 349.82px;" id="elnku1lsfetc8" class="animable"></line><line x1="452.77" y1="377.32" x2="447.25" y2="368.34" style="fill: none; stroke: rgb(38, 50, 56); stroke-miterlimit: 10; stroke-width: 2px; transform-origin: 450.01px 372.83px;" id="elnboxmoc6ja" class="animable"></line><path d="M448.93,371a8.22,8.22,0,0,0-1.55-6.61c-1.48-2-10.21-8.05-11.83-4.87C433.79,363,442.08,372.29,448.93,371Z" style="fill: rgb(61, 44, 141); stroke: rgb(38, 50, 56); stroke-miterlimit: 10; transform-origin: 442.198px 364.868px;" id="elvefkcvw8ev9" class="animable"></path><line x1="448.93" y1="371.04" x2="441.01" y2="363.44" style="fill: none; stroke: rgb(38, 50, 56); stroke-miterlimit: 10; stroke-width: 0.5px; transform-origin: 444.97px 367.24px;" id="elggqn1byi2mr" class="animable"></line><line x1="457.51" y1="331.61" x2="452" y2="322.63" style="fill: none; stroke: rgb(38, 50, 56); stroke-miterlimit: 10; stroke-width: 2px; transform-origin: 454.755px 327.12px;" id="elwqp0l0kxrb" class="animable"></line><path d="M453.68,325.33a8.2,8.2,0,0,0-1.56-6.61c-1.48-2-10.21-8.05-11.83-4.87C438.53,317.31,446.82,326.58,453.68,325.33Z" style="fill: rgb(61, 44, 141); stroke: rgb(38, 50, 56); stroke-miterlimit: 10; transform-origin: 446.943px 319.194px;" id="elwrdd0fe32md" class="animable"></path><line x1="453.68" y1="325.33" x2="445.75" y2="317.73" style="fill: none; stroke: rgb(38, 50, 56); stroke-miterlimit: 10; stroke-width: 0.5px; transform-origin: 449.715px 321.53px;" id="elvd0kosymi1" class="animable"></line><line x1="460.46" y1="303.19" x2="454.94" y2="294.21" style="fill: none; stroke: rgb(38, 50, 56); stroke-miterlimit: 10; stroke-width: 2px; transform-origin: 457.7px 298.7px;" id="elk2dv9xdyu4i" class="animable"></line><path d="M456.63,296.91a8.2,8.2,0,0,0-1.56-6.61c-1.48-2-10.21-8.05-11.83-4.87C441.48,288.89,449.77,298.16,456.63,296.91Z" style="fill: rgb(61, 44, 141); stroke: rgb(38, 50, 56); stroke-miterlimit: 10; transform-origin: 449.893px 290.774px;" id="elm07vrpknepq" class="animable"></path><line x1="456.63" y1="296.91" x2="448.7" y2="289.31" style="fill: none; stroke: rgb(38, 50, 56); stroke-miterlimit: 10; stroke-width: 0.5px; transform-origin: 452.665px 293.11px;" id="elens5yxfmb8d" class="animable"></line><line x1="451.09" y1="392.07" x2="458.33" y2="384.42" style="fill: none; stroke: rgb(38, 50, 56); stroke-miterlimit: 10; stroke-width: 2px; transform-origin: 454.71px 388.245px;" id="elvzo8ngq736" class="animable"></line><path d="M456.13,386.71a8.25,8.25,0,0,1,2.88-6.15c1.86-1.66,11.65-5.78,12.58-2.34C472.6,382,462.59,389.34,456.13,386.71Z" style="fill: rgb(61, 44, 141); stroke: rgb(38, 50, 56); stroke-miterlimit: 10; transform-origin: 463.895px 382.078px;" id="elr87tgwlmb29" class="animable"></path><line x1="456.13" y1="386.71" x2="466" y2="380.59" style="fill: none; stroke: rgb(38, 50, 56); stroke-miterlimit: 10; stroke-width: 0.5px; transform-origin: 461.065px 383.65px;" id="elpoqx1nf3et" class="animable"></line><line x1="455.85" y1="346.24" x2="463.09" y2="338.58" style="fill: none; stroke: rgb(38, 50, 56); stroke-miterlimit: 10; stroke-width: 2px; transform-origin: 459.47px 342.41px;" id="eldobwo650dwv" class="animable"></line><path d="M460.89,340.87a8.19,8.19,0,0,1,2.88-6.14c1.86-1.66,11.64-5.79,12.57-2.34C477.36,336.14,467.34,343.51,460.89,340.87Z" style="fill: rgb(61, 44, 141); stroke: rgb(38, 50, 56); stroke-miterlimit: 10; transform-origin: 468.651px 336.241px;" id="eltmqmackyudj" class="animable"></path><line x1="460.89" y1="340.87" x2="470.75" y2="334.75" style="fill: none; stroke: rgb(38, 50, 56); stroke-miterlimit: 10; stroke-width: 0.5px; transform-origin: 465.82px 337.81px;" id="elfxygis012s6" class="animable"></line><line x1="457.94" y1="326.1" x2="465.18" y2="318.44" style="fill: none; stroke: rgb(38, 50, 56); stroke-miterlimit: 10; stroke-width: 2px; transform-origin: 461.56px 322.27px;" id="elswouw5jkhjg" class="animable"></line><path d="M463,320.73a8.19,8.19,0,0,1,2.88-6.14c1.86-1.67,11.64-5.79,12.58-2.34C479.45,316,469.43,323.36,463,320.73Z" style="fill: rgb(61, 44, 141); stroke: rgb(38, 50, 56); stroke-miterlimit: 10; transform-origin: 470.764px 316.099px;" id="ele7t93n413xo" class="animable"></path><line x1="462.98" y1="320.73" x2="472.84" y2="314.61" style="fill: none; stroke: rgb(38, 50, 56); stroke-miterlimit: 10; stroke-width: 0.5px; transform-origin: 467.91px 317.67px;" id="elvsrezli21z" class="animable"></line><line x1="461" y1="296.57" x2="468.24" y2="288.91" style="fill: none; stroke: rgb(38, 50, 56); stroke-miterlimit: 10; stroke-width: 2px; transform-origin: 464.62px 292.74px;" id="el4cwm9vdck7z" class="animable"></line><path d="M466,291.2a8.23,8.23,0,0,1,2.88-6.14c1.86-1.67,11.65-5.79,12.58-2.34C482.51,286.47,472.5,293.84,466,291.2Z" style="fill: rgb(61, 44, 141); stroke: rgb(38, 50, 56); stroke-miterlimit: 10; transform-origin: 473.768px 286.571px;" id="elawy1inn3gn" class="animable"></path><line x1="466.04" y1="291.2" x2="475.91" y2="285.08" style="fill: none; stroke: rgb(38, 50, 56); stroke-miterlimit: 10; stroke-width: 0.5px; transform-origin: 470.975px 288.14px;" id="elm559rt9b6n" class="animable"></line><path d="M462.59,277.61a8.2,8.2,0,0,1,2.88-6.15c1.85-1.66,11.64-5.79,12.57-2.34C479.05,272.87,469,280.24,462.59,277.61Z" style="fill: rgb(61, 44, 141); stroke: rgb(38, 50, 56); stroke-miterlimit: 10; transform-origin: 470.35px 272.975px;" id="el02j5nwpo6vdc" class="animable"></path><line x1="462.59" y1="277.61" x2="472.45" y2="271.49" style="fill: none; stroke: rgb(38, 50, 56); stroke-miterlimit: 10; stroke-width: 0.5px; transform-origin: 467.52px 274.55px;" id="el1fqryccecq8" class="animable"></line><path d="M463,278.05a8.21,8.21,0,0,1-5.81-3.51c-1.46-2-4.53-12.19-1-12.75C460,261.17,466.28,271.9,463,278.05Z" style="fill: rgb(61, 44, 141); stroke: rgb(38, 50, 56); stroke-miterlimit: 10; transform-origin: 459.237px 269.907px;" id="elkqvnurnvisk" class="animable"></path><line x1="462.99" y1="278.05" x2="457.94" y2="267.6" style="fill: none; stroke: rgb(38, 50, 56); stroke-miterlimit: 10; stroke-width: 0.5px; transform-origin: 460.465px 272.825px;" id="elbsdsw38s9j" class="animable"></line><line x1="444.33" y1="216.1" x2="444.33" y2="409.77" style="fill: none; stroke: rgb(38, 50, 56); stroke-miterlimit: 10; stroke-width: 2px; transform-origin: 444.33px 312.935px;" id="el2gd3q6wpde4" class="animable"></line><line x1="444.48" y1="380.65" x2="438.07" y2="372.29" style="fill: none; stroke: rgb(38, 50, 56); stroke-miterlimit: 10; stroke-width: 2px; transform-origin: 441.275px 376.47px;" id="elklhbt2hl7ze" class="animable"></line><path d="M440,374.8a8.19,8.19,0,0,0-2.23-6.41c-1.67-1.85-11-7-12.26-3.63C424.13,368.39,433.33,376.75,440,374.8Z" style="fill: rgb(61, 44, 141); stroke: rgb(38, 50, 56); stroke-miterlimit: 10; transform-origin: 432.703px 369.367px;" id="el18grwmotscv" class="animable"></path><line x1="440.02" y1="374.8" x2="431.36" y2="368.06" style="fill: none; stroke: rgb(38, 50, 56); stroke-miterlimit: 10; stroke-width: 0.5px; transform-origin: 435.69px 371.43px;" id="elyw8wrpigq7" class="animable"></line><line x1="444.48" y1="344.26" x2="438.07" y2="335.89" style="fill: none; stroke: rgb(38, 50, 56); stroke-miterlimit: 10; stroke-width: 2px; transform-origin: 441.275px 340.075px;" id="elgyt353txr4" class="animable"></line><path d="M440,338.4a8.19,8.19,0,0,0-2.23-6.41c-1.67-1.84-11-7-12.26-3.62C424.13,332,433.33,340.35,440,338.4Z" style="fill: rgb(61, 44, 141); stroke: rgb(38, 50, 56); stroke-miterlimit: 10; transform-origin: 432.703px 332.97px;" id="elqcj0jcfi4jj" class="animable"></path><line x1="440.02" y1="338.4" x2="431.36" y2="331.66" style="fill: none; stroke: rgb(38, 50, 56); stroke-miterlimit: 10; stroke-width: 0.5px; transform-origin: 435.69px 335.03px;" id="elz3qevpt8yh" class="animable"></line><line x1="444.48" y1="301.53" x2="438.07" y2="293.16" style="fill: none; stroke: rgb(38, 50, 56); stroke-miterlimit: 10; stroke-width: 2px; transform-origin: 441.275px 297.345px;" id="elr0r278id2gr" class="animable"></line><path d="M440,295.67a8.19,8.19,0,0,0-2.23-6.41c-1.67-1.84-11-7-12.26-3.62C424.13,289.26,433.33,297.62,440,295.67Z" style="fill: rgb(61, 44, 141); stroke: rgb(38, 50, 56); stroke-miterlimit: 10; transform-origin: 432.703px 290.239px;" id="elt1wpml6k2v" class="animable"></path><line x1="440.02" y1="295.67" x2="431.36" y2="288.93" style="fill: none; stroke: rgb(38, 50, 56); stroke-miterlimit: 10; stroke-width: 0.5px; transform-origin: 435.69px 292.3px;" id="elbzrhlcfcu4p" class="animable"></line><line x1="444.48" y1="273.08" x2="438.07" y2="264.72" style="fill: none; stroke: rgb(38, 50, 56); stroke-miterlimit: 10; stroke-width: 2px; transform-origin: 441.275px 268.9px;" id="elyxjfuyd8ovm" class="animable"></line><path d="M440,267.23a8.19,8.19,0,0,0-2.23-6.41c-1.67-1.85-11-7-12.26-3.63C424.13,260.82,433.33,269.18,440,267.23Z" style="fill: rgb(61, 44, 141); stroke: rgb(38, 50, 56); stroke-miterlimit: 10; transform-origin: 432.703px 261.797px;" id="elu77qicks2mo" class="animable"></path><line x1="440.02" y1="267.23" x2="431.36" y2="260.48" style="fill: none; stroke: rgb(38, 50, 56); stroke-miterlimit: 10; stroke-width: 0.5px; transform-origin: 435.69px 263.855px;" id="elm3ozffp9oml" class="animable"></line><line x1="444.48" y1="244.51" x2="438.07" y2="236.15" style="fill: none; stroke: rgb(38, 50, 56); stroke-miterlimit: 10; stroke-width: 2px; transform-origin: 441.275px 240.33px;" id="elakwgz4rhhob" class="animable"></line><path d="M440,238.66a8.19,8.19,0,0,0-2.23-6.41c-1.67-1.85-11-7-12.26-3.63C424.13,232.25,433.33,240.61,440,238.66Z" style="fill: rgb(61, 44, 141); stroke: rgb(38, 50, 56); stroke-miterlimit: 10; transform-origin: 432.703px 233.226px;" id="elwhat8k2uwx" class="animable"></path><line x1="440.02" y1="238.66" x2="431.36" y2="231.92" style="fill: none; stroke: rgb(38, 50, 56); stroke-miterlimit: 10; stroke-width: 0.5px; transform-origin: 435.69px 235.29px;" id="eln1vp9rd8ao" class="animable"></line><line x1="444.34" y1="391.77" x2="450.75" y2="383.4" style="fill: none; stroke: rgb(38, 50, 56); stroke-miterlimit: 10; stroke-width: 2px; transform-origin: 447.545px 387.585px;" id="elqvgmd0mj9ts" class="animable"></line><path d="M448.8,385.91A8.24,8.24,0,0,1,451,379.5c1.68-1.85,11-7,12.27-3.62C464.69,379.5,455.49,387.86,448.8,385.91Z" style="fill: rgb(61, 44, 141); stroke: rgb(38, 50, 56); stroke-miterlimit: 10; transform-origin: 456.09px 380.479px;" id="ell8gmqtpsut" class="animable"></path><line x1="448.8" y1="385.91" x2="457.98" y2="378.81" style="fill: none; stroke: rgb(38, 50, 56); stroke-miterlimit: 10; stroke-width: 0.5px; transform-origin: 453.39px 382.36px;" id="el4khifvmy0x6" class="animable"></line><line x1="444.34" y1="333.88" x2="450.75" y2="325.52" style="fill: none; stroke: rgb(38, 50, 56); stroke-miterlimit: 10; stroke-width: 2px; transform-origin: 447.545px 329.7px;" id="el8kkbjo87jg5" class="animable"></line><path d="M448.8,328a8.23,8.23,0,0,1,2.23-6.41c1.68-1.85,11-7,12.27-3.63C464.69,321.62,455.49,330,448.8,328Z" style="fill: rgb(61, 44, 141); stroke: rgb(38, 50, 56); stroke-miterlimit: 10; transform-origin: 456.104px 322.573px;" id="eln7iwnlyvcn" class="animable"></path><line x1="448.8" y1="328.03" x2="457.98" y2="320.92" style="fill: none; stroke: rgb(38, 50, 56); stroke-miterlimit: 10; stroke-width: 0.5px; transform-origin: 453.39px 324.475px;" id="el6ifhm7hwceq" class="animable"></line><line x1="444.34" y1="305.31" x2="450.75" y2="296.95" style="fill: none; stroke: rgb(38, 50, 56); stroke-miterlimit: 10; stroke-width: 2px; transform-origin: 447.545px 301.13px;" id="elaiwztob6eu" class="animable"></line><path d="M448.8,299.46a8.23,8.23,0,0,1,2.23-6.41c1.68-1.85,11-7,12.27-3.63C464.69,293.05,455.49,301.41,448.8,299.46Z" style="fill: rgb(61, 44, 141); stroke: rgb(38, 50, 56); stroke-miterlimit: 10; transform-origin: 456.104px 294.027px;" id="elc92zs8ba0c4" class="animable"></path><line x1="448.8" y1="299.46" x2="457.98" y2="292.35" style="fill: none; stroke: rgb(38, 50, 56); stroke-miterlimit: 10; stroke-width: 0.5px; transform-origin: 453.39px 295.905px;" id="el5e3drc0clik" class="animable"></line><line x1="444.34" y1="267.55" x2="450.75" y2="259.19" style="fill: none; stroke: rgb(38, 50, 56); stroke-miterlimit: 10; stroke-width: 2px; transform-origin: 447.545px 263.37px;" id="eldmjcg27ivu6" class="animable"></line><path d="M448.8,261.7a8.26,8.26,0,0,1,2.23-6.42c1.68-1.84,11-6.95,12.27-3.62C464.69,255.28,455.49,263.65,448.8,261.7Z" style="fill: rgb(61, 44, 141); stroke: rgb(38, 50, 56); stroke-miterlimit: 10; transform-origin: 456.104px 256.275px;" id="elmkagbtbq1g" class="animable"></path><line x1="448.8" y1="261.7" x2="457.98" y2="254.59" style="fill: none; stroke: rgb(38, 50, 56); stroke-miterlimit: 10; stroke-width: 0.5px; transform-origin: 453.39px 258.145px;" id="elju2att8ub2q" class="animable"></line><line x1="444.34" y1="237.86" x2="450.75" y2="229.5" style="fill: none; stroke: rgb(38, 50, 56); stroke-miterlimit: 10; stroke-width: 2px; transform-origin: 447.545px 233.68px;" id="el2637ddjm9tf" class="animable"></line><path d="M448.8,232A8.23,8.23,0,0,1,451,225.6c1.68-1.85,11-7,12.27-3.63C464.69,225.6,455.49,234,448.8,232Z" style="fill: rgb(61, 44, 141); stroke: rgb(38, 50, 56); stroke-miterlimit: 10; transform-origin: 456.091px 226.578px;" id="elefkiukeusbc" class="animable"></path><line x1="448.8" y1="232.01" x2="457.98" y2="224.9" style="fill: none; stroke: rgb(38, 50, 56); stroke-miterlimit: 10; stroke-width: 0.5px; transform-origin: 453.39px 228.455px;" id="elb1kd5w8y5m" class="animable"></line><path d="M444,218.84a8.19,8.19,0,0,1,2.23-6.41c1.68-1.84,11-7,12.27-3.62C459.85,212.43,450.65,220.79,444,218.84Z" style="fill: rgb(61, 44, 141); stroke: rgb(38, 50, 56); stroke-miterlimit: 10; transform-origin: 451.299px 213.409px;" id="elf8ynorb4pwt" class="animable"></path><line x1="443.96" y1="218.84" x2="453.14" y2="211.74" style="fill: none; stroke: rgb(38, 50, 56); stroke-miterlimit: 10; stroke-width: 0.5px; transform-origin: 448.55px 215.29px;" id="elo79xqu9sbcs" class="animable"></line><path d="M444.41,219.24a8.23,8.23,0,0,1-6.15-2.89c-1.65-1.87-5.76-11.66-2.31-12.58C439.7,202.76,447.05,212.79,444.41,219.24Z" style="fill: rgb(61, 44, 141); stroke: rgb(38, 50, 56); stroke-miterlimit: 10; transform-origin: 439.79px 211.47px;" id="elrene0ti1vxl" class="animable"></path><line x1="444.41" y1="219.24" x2="438.3" y2="209.36" style="fill: none; stroke: rgb(38, 50, 56); stroke-miterlimit: 10; stroke-width: 0.5px; transform-origin: 441.355px 214.3px;" id="elnyhna2w1yd" class="animable"></line><polygon points="452.3 460 431.79 460 429.22 408.2 454.86 408.2 452.3 460" style="fill: rgb(38, 50, 56); stroke: rgb(38, 50, 56); stroke-miterlimit: 10; transform-origin: 442.04px 434.1px;" id="el2vg5pmaruhy" class="animable"></polygon></g><g id="freepik--App--inject-231" class="animable animator-active" style="transform-origin: 270.475px 233.59px;"><rect x="154.35" y="16.34" width="232.25" height="434.5" style="fill: rgb(38, 50, 56); transform-origin: 270.475px 233.59px;" id="el5mnmquunkr" class="animable"></rect><rect x="159.59" y="139.75" width="221.78" height="120.84" style="fill: rgb(38, 50, 56); transform-origin: 270.48px 200.17px;" id="el12nncozdtoyk" class="animable"></rect><g id="eltod1gaum0d"><rect x="159.59" y="139.75" width="221.78" height="120.84" style="fill: rgb(255, 255, 255); opacity: 0.15; transform-origin: 270.48px 200.17px;" class="animable"></rect></g><rect x="159.59" y="270.87" width="221.78" height="49.71" style="fill: rgb(38, 50, 56); transform-origin: 270.48px 295.725px;" id="elxb08gryxx0j" class="animable"></rect><g id="el6aj3qowtn35"><rect x="159.59" y="270.87" width="221.78" height="49.71" style="fill: rgb(255, 255, 255); opacity: 0.15; transform-origin: 270.48px 295.725px;" class="animable"></rect></g><rect x="159.59" y="330.86" width="221.78" height="49.71" style="fill: rgb(38, 50, 56); transform-origin: 270.48px 355.715px;" id="elr66pue1ifd" class="animable"></rect><g id="ely9a8r0p16w"><rect x="159.59" y="330.86" width="221.78" height="49.71" style="fill: rgb(255, 255, 255); opacity: 0.15; transform-origin: 270.48px 355.715px;" class="animable"></rect></g><rect x="159.59" y="390.85" width="221.78" height="49.71" style="fill: rgb(38, 50, 56); transform-origin: 270.48px 415.705px;" id="el2mvw4eqx7xn" class="animable"></rect><g id="elpjdgxw8b45"><rect x="159.59" y="390.85" width="221.78" height="49.71" style="fill: rgb(255, 255, 255); opacity: 0.15; transform-origin: 270.48px 415.705px;" class="animable"></rect></g><rect x="154.35" y="16.34" width="232.25" height="116.55" style="fill: rgb(61, 44, 141); transform-origin: 270.475px 74.615px;" id="el91rjregyeur" class="animable"></rect><path d="M262.26,207l-5.49-.58a41.66,41.66,0,0,0,.23-4.49,43.14,43.14,0,0,0-43.09-43.09,42.33,42.33,0,0,0-5.29.33l-.68-5.48a49.58,49.58,0,0,1,6-.37,48.66,48.66,0,0,1,48.61,48.61A50.18,50.18,0,0,1,262.26,207Z" style="fill: rgb(255, 255, 255); transform-origin: 235.245px 180.16px;" id="elmxg2uh7k5wc" class="animable"></path><path d="M249.61,234.87l-4.05-3.74a42.66,42.66,0,0,0,11.21-24.75l5.49.56A48.08,48.08,0,0,1,249.61,234.87Z" style="fill: rgb(145, 145, 145); transform-origin: 253.91px 220.625px;" id="elvbuq2acj1t" class="animable"></path><path d="M213.91,250.49a48.75,48.75,0,0,1-35.7-15.62l4.06-3.74a43.1,43.1,0,0,0,63.29,0l4.05,3.74A48.72,48.72,0,0,1,213.91,250.49Z" style="fill: rgb(38, 50, 56); transform-origin: 213.91px 240.81px;" id="el5t84aovmo9k" class="animable"></path><path d="M178.21,234.87a48.62,48.62,0,0,1,29.73-81.23l.68,5.48a43.09,43.09,0,0,0-26.35,72Z" style="fill: rgb(61, 44, 141); transform-origin: 186.967px 194.255px;" id="el76k6p61yq7" class="animable"></path><path d="M308.31,159.09a4.14,4.14,0,1,0-4.14,4.13A4.14,4.14,0,0,0,308.31,159.09Z" style="fill: rgb(61, 44, 141); transform-origin: 304.17px 159.08px;" id="el1pn9izqkxzv" class="animable"></path><path d="M321.37,157.46v1.16h-2.83v4.12H322v1.17h-4.76V152.33H322v1.18h-3.47v4Z" style="fill: rgb(255, 255, 255); transform-origin: 319.62px 158.12px;" id="elhruojhimm7d" class="animable"></path><path d="M324.9,163.91v-10.4h-2.14v-1.18h5.56v1.18h-2.13v10.4Z" style="fill: rgb(255, 255, 255); transform-origin: 325.54px 158.12px;" id="elx10j4w1ylwf" class="animable"></path><path d="M330.51,158.7v5.21h-1.29V152.33h1.29v5.21h2.85v-5.21h1.29v11.58h-1.29V158.7Z" style="fill: rgb(255, 255, 255); transform-origin: 331.935px 158.12px;" id="el0gpxrccrg47t" class="animable"></path><path d="M210.07,294.52v1.16h-2.83v4.12h3.47V301H206V289.39h4.76v1.17h-3.47v4Z" style="fill: rgb(255, 255, 255); transform-origin: 208.38px 295.195px;" id="el8odvdz5xngg" class="animable"></path><path d="M213.58,301V290.56h-2.14v-1.17H217v1.17h-2.14V301Z" style="fill: rgb(255, 255, 255); transform-origin: 214.22px 295.195px;" id="el7q140fgikv5" class="animable"></path><path d="M219.16,295.76V301h-1.29V289.39h1.29v5.21H222v-5.21h1.28V301H222v-5.21Z" style="fill: rgb(255, 255, 255); transform-origin: 220.575px 295.195px;" id="el1vgktai58cx" class="animable"></path><path d="M228.74,294.52v1.16h-2.83v4.12h3.48V301h-4.77V289.39h4.77v1.17h-3.48v4Z" style="fill: rgb(255, 255, 255); transform-origin: 227.005px 295.195px;" id="el6e6ywc6icgo" class="animable"></path><path d="M233.16,289.39c1.83,0,2.59.92,2.59,2.64v1c0,1.27-.45,2.07-1.44,2.38,1.06.32,1.45,1.18,1.45,2.42v1.8A3,3,0,0,0,236,301h-1.3a3,3,0,0,1-.22-1.41v-1.82c0-1.3-.61-1.72-1.69-1.72h-.91v5h-1.29V289.39Zm-.33,5.46c1,0,1.64-.33,1.64-1.59v-1.11c0-1-.38-1.59-1.34-1.59h-1.26v4.29Z" style="fill: rgb(255, 255, 255); transform-origin: 233.295px 295.22px;" id="elo2h0uu7tm1" class="animable"></path><path d="M241.23,294.52v1.16H238.4v4.12h3.47V301h-4.76V289.39h4.76v1.17H238.4v4Z" style="fill: rgb(255, 255, 255); transform-origin: 239.49px 295.195px;" id="elcfgm1gsdi3t" class="animable"></path><path d="M244.29,298.24c0,1,.42,1.67,1.36,1.67s1.34-.63,1.34-1.67v-8.85h1.21v8.78c0,1.76-.81,2.93-2.6,2.93s-2.58-1.17-2.58-2.93v-8.78h1.27Z" style="fill: rgb(255, 255, 255); transform-origin: 245.61px 295.245px;" id="el2pt8r04hrra" class="animable"></path><path d="M253.74,301H252.5l-1.92-9.21V301h-1.12V289.39h1.8l1.9,9.25,1.84-9.25h1.81V301h-1.23v-9.31Z" style="fill: rgb(255, 255, 255); transform-origin: 253.135px 295.195px;" id="eljltk9otxl7k" class="animable"></path><path d="M316.33,289.44c1.41.2,2.05,1.29,2.05,2.84v.32h-1.2v-.4c0-1-.42-1.65-1.34-1.65s-1.33.63-1.33,1.65c0,2.6,3.89,2.61,3.89,5.88,0,1.55-.66,2.66-2.07,2.86v.87h-1.06v-.87c-1.44-.2-2.08-1.29-2.08-2.86v-.72h1.21v.8c0,1,.43,1.64,1.35,1.64s1.36-.6,1.36-1.64c0-2.58-3.87-2.62-3.87-5.88,0-1.59.64-2.63,2-2.84v-.93h1.06Z" style="fill: rgb(255, 255, 255); transform-origin: 315.795px 295.16px;" id="elft25zqtsgh" class="animable"></path><path d="M324.59,291.49a3.59,3.59,0,0,1-1.6.5v-1.06a2,2,0,0,0,2-1.54h.89V301h-1.28Z" style="fill: rgb(255, 255, 255); transform-origin: 324.435px 295.195px;" id="elm4uov12wzo" class="animable"></path><path d="M329.12,294.1a1.87,1.87,0,0,1,1.72-1c1.49,0,2.15,1.1,2.15,2.75v2.27c0,1.77-.85,2.93-2.62,2.93s-2.6-1.16-2.6-2.93v-.78H329v.86c0,1,.43,1.67,1.36,1.67s1.36-.63,1.36-1.67V296c0-1-.43-1.67-1.36-1.67a1.26,1.26,0,0,0-1.31,1.24v.27h-1.21l.32-6.44h4.57v1.16H329.3Z" style="fill: rgb(255, 255, 255); transform-origin: 330.38px 295.225px;" id="elh2a7mqrzybh" class="animable"></path><path d="M334.8,301h-.48v-1.6h1.24v1.49l-.65,1.57h-.53Z" style="fill: rgb(255, 255, 255); transform-origin: 334.94px 300.93px;" id="el1wr9vy7t52n" class="animable"></path><path d="M342.08,292.17v.21h-1.21v-.3c0-1-.43-1.65-1.37-1.65s-1.41.63-1.41,1.87v2.6a1.85,1.85,0,0,1,1.87-1.24c1.49,0,2.15,1.07,2.15,2.74v1.76c0,1.77-.88,2.93-2.65,2.93s-2.66-1.16-2.66-2.93v-5.91c0-1.84.83-3,2.66-3S342.08,290.4,342.08,292.17Zm-4,4.33v1.74c0,1,.43,1.67,1.37,1.67s1.38-.63,1.38-1.67V296.5c0-1-.45-1.67-1.38-1.67S338.09,295.46,338.09,296.5Z" style="fill: rgb(255, 255, 255); transform-origin: 339.455px 295.17px;" id="elllarl2srdaj" class="animable"></path><path d="M344.61,294.1a1.89,1.89,0,0,1,1.72-1c1.49,0,2.16,1.1,2.16,2.75v2.27c0,1.77-.85,2.93-2.62,2.93s-2.6-1.16-2.6-2.93v-.78h1.21v.86c0,1,.43,1.67,1.36,1.67s1.36-.63,1.36-1.67V296c0-1-.43-1.67-1.36-1.67a1.26,1.26,0,0,0-1.31,1.24v.27h-1.21l.32-6.44h4.56v1.16h-3.4Z" style="fill: rgb(255, 255, 255); transform-origin: 345.88px 295.225px;" id="el8fp1uwcxlb4" class="animable"></path><path d="M354.94,292.2c0,3.49-3.92,4.75-3.94,7.41v.19h3.81V301h-5.08v-1c0-3.74,3.92-4.47,3.92-7.73,0-1.19-.4-1.82-1.35-1.82s-1.36.68-1.36,1.7v1h-1.21v-.94c0-1.77.81-3,2.6-3S354.94,290.43,354.94,292.2Z" style="fill: rgb(255, 255, 255); transform-origin: 352.335px 295.105px;" id="elbrfd4gkjsc" class="animable"></path><path d="M357.38,299.37V301h-1.24v-1.6Z" style="fill: rgb(255, 255, 255); transform-origin: 356.76px 300.185px;" id="ellgpradua25" class="animable"></path><path d="M363.85,292.18v.3a2.29,2.29,0,0,1-1.41,2.38,2.31,2.31,0,0,1,1.41,2.4v.9c0,1.77-.83,2.93-2.61,2.93s-2.6-1.16-2.6-2.93v-.8h1.21v.88c0,1,.43,1.67,1.35,1.67s1.36-.61,1.36-1.78v-.9c0-1.14-.48-1.69-1.46-1.72h-.69v-1.16h.76a1.39,1.39,0,0,0,1.39-1.59v-.53c0-1.19-.41-1.8-1.36-1.8s-1.35.65-1.35,1.69v.59h-1.21v-.53c0-1.77.82-2.91,2.6-2.91S363.85,290.41,363.85,292.18Z" style="fill: rgb(255, 255, 255); transform-origin: 361.253px 295.18px;" id="eli7tsweyokjc" class="animable"></path><path d="M370.32,292.2c0,3.49-3.92,4.75-3.93,7.41v.19h3.8V301h-5.08v-1c0-3.74,3.92-4.47,3.92-7.73,0-1.19-.39-1.82-1.35-1.82s-1.36.68-1.36,1.7v1h-1.21v-.94c0-1.77.81-3,2.6-3S370.32,290.43,370.32,292.2Z" style="fill: rgb(255, 255, 255); transform-origin: 367.715px 295.105px;" id="elqrlngcxq06b" class="animable"></path><path d="M352.75,155.13v.3a2.3,2.3,0,0,1-1.41,2.38,2.3,2.3,0,0,1,1.41,2.4v.89c0,1.77-.83,2.93-2.61,2.93s-2.6-1.16-2.6-2.93v-.79h1.21v.87c0,1,.43,1.68,1.35,1.68s1.36-.62,1.36-1.79v-.9c0-1.14-.48-1.68-1.46-1.72h-.69V157.3h.76a1.39,1.39,0,0,0,1.39-1.59v-.53c0-1.19-.41-1.81-1.36-1.81s-1.35.65-1.35,1.69v.6h-1.21v-.53c0-1.77.82-2.92,2.6-2.92S352.75,153.36,352.75,155.13Z" style="fill: rgb(255, 255, 255); transform-origin: 350.153px 158.12px;" id="elhsdqpr6zanb" class="animable"></path><path d="M359.22,155.14c0,3.5-3.92,4.75-3.93,7.42v.18h3.8v1.17H354v-1c0-3.74,3.92-4.47,3.92-7.73,0-1.19-.39-1.82-1.35-1.82s-1.36.68-1.36,1.71v1H354v-.94c0-1.77.81-2.95,2.6-2.95S359.22,153.37,359.22,155.14Z" style="fill: rgb(255, 255, 255); transform-origin: 356.61px 158.045px;" id="elurall1gvor" class="animable"></path><path d="M363.66,154.13v3.66c0,1.13-.53,1.87-1.65,1.87s-1.66-.74-1.66-1.87v-3.66c0-1.1.53-1.87,1.66-1.87S363.66,153,363.66,154.13Zm-2.48,0v3.78c0,.63.23,1,.83,1s.82-.41.82-1v-3.78c0-.62-.24-1.05-.82-1.05S361.18,153.46,361.18,154.08Zm6.3-1.75-4.56,11.58h-.78l4.57-11.58Zm1.88,6.12v3.64c0,1.13-.52,1.87-1.66,1.87s-1.65-.74-1.65-1.87v-3.64c0-1.11.53-1.85,1.65-1.85S369.36,157.34,369.36,158.45Zm-2.49,0v3.76c0,.63.25,1.06.83,1.06s.83-.43.83-1.06V158.4c0-.62-.25-1-.83-1S366.87,157.78,366.87,158.4Z" style="fill: rgb(255, 255, 255); transform-origin: 364.855px 158.135px;" id="elx5zjqwcmg8j" class="animable"></path><path d="M215.86,69c3,.43,4.4,2.77,4.4,6.11v.67h-2.6v-.85c0-2.2-.88-3.55-2.87-3.55S212,72.68,212,74.88c0,5.57,8.34,5.61,8.34,12.6,0,3.34-1.42,5.72-4.43,6.14V95.5h-2.28V93.62c-3.08-.42-4.47-2.77-4.47-6.14V86h2.59v1.7c0,2.24.92,3.51,2.91,3.51s2.91-1.27,2.91-3.51c0-5.54-8.3-5.61-8.3-12.6,0-3.41,1.38-5.65,4.36-6.11V67h2.28Z" style="fill: rgb(38, 50, 56); transform-origin: 214.75px 81.25px;" id="eluyejca07cp" class="animable"></path><path d="M239.68,74.88c0,7.49-8.42,10.19-8.45,15.9v.39h8.16v2.52H228.5V91.56c0-8,8.41-9.58,8.41-16.57,0-2.56-.85-3.91-2.91-3.91s-2.91,1.46-2.91,3.66v2.2H228.5v-2c0-3.8,1.73-6.32,5.57-6.32S239.68,71.08,239.68,74.88Z" style="fill: rgb(38, 50, 56); transform-origin: 234.09px 81.155px;" id="elqpx0khv8suh" class="animable"></path><path d="M242,74.85c0-3.8,1.88-6.25,5.68-6.25s5.72,2.45,5.72,6.25V87.66c0,3.8-1.88,6.28-5.72,6.28S242,91.46,242,87.66Zm2.73,13c0,2.23,1,3.58,2.95,3.58s3-1.35,3-3.58V74.7c0-2.27-.93-3.62-3-3.62s-2.95,1.35-2.95,3.62Z" style="fill: rgb(38, 50, 56); transform-origin: 247.7px 81.27px;" id="elbtkrx4xok37" class="animable"></path><path d="M257.25,93.69h-1V90.25h2.67v3.2l-1.39,3.37h-1.13Z" style="fill: rgb(38, 50, 56); transform-origin: 257.585px 93.535px;" id="el07sc605odh1r" class="animable"></path><path d="M272.87,74.85V87.52c0,3.94-1.77,6.42-5.75,6.42-3.8,0-5.61-2.45-5.61-6.24v-.47h2.59v.64c0,2.24,1,3.55,2.95,3.55s3.05-1.35,3.05-4V81.87a4,4,0,0,1-4,2.63c-3.19,0-4.61-2.27-4.61-5.86V74.85c0-3.8,1.84-6.25,5.68-6.25S272.87,71.05,272.87,74.85Zm-8.66-.15v3.73c0,2.24,1,3.59,3,3.59s2.94-1.35,2.94-3.59V74.7c0-2.27-.92-3.58-2.94-3.58S264.21,72.43,264.21,74.7Z" style="fill: rgb(38, 50, 56); transform-origin: 267.18px 81.27px;" id="elgfjchqyeqre" class="animable"></path><path d="M280.61,73.35a7.39,7.39,0,0,1-3.44,1.07V72.15c2.7-.11,3.62-1.56,4.26-3.3h1.92V93.69h-2.74Z" style="fill: rgb(38, 50, 56); transform-origin: 280.26px 81.27px;" id="el9e4pp5yg6s" class="animable"></path><path d="M298.68,74.81v.46h-2.59v-.64c0-2.23-.92-3.55-2.94-3.55s-3,1.35-3,4v5.58a4,4,0,0,1,4-2.67c3.19,0,4.61,2.31,4.61,5.9v3.76c0,3.8-1.88,6.28-5.68,6.28s-5.71-2.48-5.71-6.28V75c0-3.94,1.77-6.39,5.71-6.39S298.68,71,298.68,74.81Zm-8.55,9.3v3.73c0,2.23.92,3.58,2.94,3.58S296,90.07,296,87.84V84.11c0-2.24-1-3.58-2.95-3.58S290.13,81.87,290.13,84.11Z" style="fill: rgb(38, 50, 56); transform-origin: 293.065px 81.27px;" id="el77h8w4603u" class="animable"></path><path d="M304,90.25v3.44h-2.66V90.25Z" style="fill: rgb(38, 50, 56); transform-origin: 302.67px 91.97px;" id="elj58dnzcwmu" class="animable"></path><path d="M318,74.85V87.52c0,3.94-1.78,6.42-5.75,6.42-3.8,0-5.61-2.45-5.61-6.24v-.47h2.59v.64c0,2.24,1,3.55,2.94,3.55s3.06-1.35,3.06-4V81.87a4,4,0,0,1-4,2.63c-3.2,0-4.62-2.27-4.62-5.86V74.85c0-3.8,1.85-6.25,5.68-6.25S318,71.05,318,74.85Zm-8.67-.15v3.73c0,2.24,1,3.59,2.95,3.59s3-1.35,3-3.59V74.7c0-2.27-.93-3.58-3-3.58S309.33,72.43,309.33,74.7Z" style="fill: rgb(38, 50, 56); transform-origin: 312.305px 81.27px;" id="eld9ftgrmxwyg" class="animable"></path><path d="M331.84,74.88c0,7.49-8.41,10.19-8.45,15.9v.39h8.17v2.52h-10.9V91.56c0-8,8.41-9.58,8.41-16.57,0-2.56-.85-3.91-2.91-3.91s-2.91,1.46-2.91,3.66v2.2h-2.59v-2c0-3.8,1.74-6.32,5.57-6.32S331.84,71.08,331.84,74.88Z" style="fill: rgb(38, 50, 56); transform-origin: 326.25px 81.155px;" id="elxghrhlfgl8" class="animable"></path><path d="M251.17,42.75c1.8,0,2.51.86,2.51,2.56v.55c0,1.22-.35,2-1.36,2.29,1.13.32,1.56,1.21,1.56,2.48v1a2.39,2.39,0,0,1-2.65,2.71h-2.66V42.75Zm-.32,4.91c1,0,1.56-.33,1.56-1.54v-.68c0-1-.35-1.52-1.28-1.52h-1.27v3.74Zm.38,5.48c1,0,1.37-.49,1.37-1.57v-1c0-1.29-.51-1.72-1.62-1.72h-1.12v4.31Z" style="fill: rgb(38, 50, 56); transform-origin: 251.237px 48.5535px;" id="el9j8zbpnfw4m" class="animable"></path><path d="M256.36,52l-.45,2.33h-1.19l2.22-11.57h1.86L261,54.32h-1.29L259.28,52Zm.16-1.11h2.58l-1.3-6.68Z" style="fill: rgb(38, 50, 56); transform-origin: 257.86px 48.545px;" id="el1fup4f5wvh3" class="animable"></path><path d="M262,54.32V42.75h1.29V53.14h3.3v1.18Z" style="fill: rgb(38, 50, 56); transform-origin: 264.295px 48.535px;" id="elgwc2uyx2nau" class="animable"></path><path d="M268.91,52l-.45,2.33h-1.19l2.21-11.57h1.87l2.22,11.57h-1.29L271.83,52Zm.16-1.11h2.58l-1.31-6.68Z" style="fill: rgb(38, 50, 56); transform-origin: 270.42px 48.545px;" id="elewzsk3uko55" class="animable"></path><path d="M275.72,54.32h-1.16V42.75h1.64l2.67,8.36V42.75H280V54.32h-1.33l-3-9.36Z" style="fill: rgb(38, 50, 56); transform-origin: 277.28px 48.535px;" id="elsvc7ltmzeqh" class="animable"></path><path d="M286.45,45.54v1h-1.23v-1.1c0-1-.41-1.67-1.35-1.67s-1.36.62-1.36,1.67v6.11c0,1,.43,1.67,1.36,1.67s1.35-.63,1.35-1.67v-1.5h1.23v1.43c0,1.76-.83,2.91-2.62,2.91s-2.59-1.15-2.59-2.91v-6c0-1.75.83-2.91,2.59-2.91S286.45,43.79,286.45,45.54Z" style="fill: rgb(38, 50, 56); transform-origin: 283.845px 48.48px;" id="elogrx29i9jbk" class="animable"></path><path d="M291.74,47.87V49h-2.83v4.11h3.47v1.18h-4.76V42.75h4.76v1.17h-3.47v3.95Z" style="fill: rgb(38, 50, 56); transform-origin: 290px 48.52px;" id="el4acsxax8oz6" class="animable"></path><path d="M250.52,111.78v2.33h-.92v-2.33h-2.28v-.93h2.28v-2.3h.92v2.3h2.28v.93Z" style="fill: rgb(38, 50, 56); transform-origin: 250.06px 111.33px;" id="el6pyashl0905" class="animable"></path><path d="M261.73,108.34c0,3.49-3.92,4.74-3.93,7.4v.18h3.8v1.18h-5.08v-1c0-3.74,3.92-4.47,3.92-7.72,0-1.19-.4-1.82-1.35-1.82s-1.36.68-1.36,1.7v1h-1.21v-1c0-1.76.81-2.94,2.6-2.94S261.73,106.57,261.73,108.34Z" style="fill: rgb(38, 50, 56); transform-origin: 259.125px 111.21px;" id="el5oiodcylcb2" class="animable"></path><path d="M264.21,110.24a1.85,1.85,0,0,1,1.72-1c1.49,0,2.15,1.09,2.15,2.74v2.27c0,1.77-.84,2.92-2.61,2.92s-2.6-1.15-2.6-2.92v-.78h1.21v.86c0,1,.43,1.67,1.35,1.67s1.36-.63,1.36-1.67v-2.25c0-1-.43-1.67-1.36-1.67a1.24,1.24,0,0,0-1.3,1.24V112h-1.21l.32-6.43h4.56v1.15h-3.41Z" style="fill: rgb(38, 50, 56); transform-origin: 265.475px 111.37px;" id="ele0884fwsm3k" class="animable"></path><path d="M270.56,115.49v1.61h-1.24v-1.61Z" style="fill: rgb(38, 50, 56); transform-origin: 269.94px 116.295px;" id="eloo834dqund" class="animable"></path><path d="M277.07,108.32v5.9c0,1.84-.82,3-2.68,3s-2.61-1.14-2.61-2.91v-.21H273v.3c0,1,.45,1.65,1.37,1.65s1.42-.63,1.42-1.85v-2.6a1.84,1.84,0,0,1-1.87,1.23c-1.48,0-2.14-1.06-2.14-2.73v-1.77c0-1.77.86-2.91,2.64-2.91S277.07,106.55,277.07,108.32Zm-4-.06V110c0,1,.44,1.67,1.37,1.67s1.37-.63,1.37-1.67v-1.73c0-1.06-.43-1.67-1.37-1.67S273,107.2,273,108.26Z" style="fill: rgb(38, 50, 56); transform-origin: 274.425px 111.32px;" id="elhqnnai2hu0a" class="animable"></path><path d="M283.45,108.32v.3a2.31,2.31,0,0,1-1.4,2.38,2.3,2.3,0,0,1,1.4,2.4v.89c0,1.77-.82,2.92-2.61,2.92s-2.59-1.15-2.59-2.92v-.8h1.2v.88c0,1,.43,1.67,1.36,1.67s1.36-.61,1.36-1.79v-.89c0-1.14-.48-1.68-1.46-1.72H280v-1.15h.76a1.39,1.39,0,0,0,1.39-1.59v-.53c0-1.19-.42-1.8-1.36-1.8s-1.36.64-1.36,1.69v.59h-1.2v-.53c0-1.77.82-2.91,2.59-2.91S283.45,106.55,283.45,108.32Z" style="fill: rgb(38, 50, 56); transform-origin: 280.848px 111.31px;" id="el6q1dpsmj8n" class="animable"></path><path d="M288,107.33V111c0,1.13-.53,1.87-1.65,1.87s-1.65-.74-1.65-1.87v-3.65c0-1.11.52-1.87,1.65-1.87S288,106.22,288,107.33Zm-2.48,0v3.77c0,.63.23,1,.83,1s.82-.41.82-1v-3.77c0-.63-.24-1.06-.82-1.06S285.47,106.65,285.47,107.28Zm6.3-1.75-4.56,11.57h-.78L291,105.53Zm1.87,6.11v3.64c0,1.12-.52,1.87-1.66,1.87s-1.65-.75-1.65-1.87v-3.64c0-1.1.53-1.85,1.65-1.85S293.64,110.54,293.64,111.64Zm-2.48,0v3.76c0,.62.24,1.05.82,1.05s.83-.43.83-1.05v-3.76c0-.62-.25-1-.83-1S291.16,111,291.16,111.59Z" style="fill: rgb(38, 50, 56); transform-origin: 289.195px 111.34px;" id="elnoe45sfi5k" class="animable"></path><path d="M168.45,24.81c0,2.9-3.26,3.94-3.27,6.15v.16h3.16v1h-4.22v-.82c0-3.11,3.26-3.71,3.26-6.42,0-1-.33-1.51-1.13-1.51s-1.13.56-1.13,1.42v.85h-1v-.79c0-1.46.68-2.44,2.16-2.44S168.45,23.34,168.45,24.81Z" style="fill: rgb(255, 255, 255); transform-origin: 166.285px 27.265px;" id="el2l3istz22zw" class="animable"></path><path d="M173.71,24.8V25a1.91,1.91,0,0,1-1.17,2,1.92,1.92,0,0,1,1.17,2v.75c0,1.47-.69,2.43-2.17,2.43s-2.16-1-2.16-2.43V29.1h1v.72c0,.87.35,1.39,1.12,1.39s1.13-.51,1.13-1.48V29c0-.95-.4-1.4-1.21-1.43h-.58v-1h.64a1.15,1.15,0,0,0,1.15-1.32v-.44c0-1-.34-1.5-1.13-1.5s-1.12.54-1.12,1.4v.5h-1V24.8c0-1.47.69-2.42,2.16-2.42S173.71,23.33,173.71,24.8Z" style="fill: rgb(255, 255, 255); transform-origin: 171.552px 27.28px;" id="eljuyfpr1d6no" class="animable"></path><path d="M175.79,25.53v1.33h-1V25.53Zm0,5.23v1.33h-1V30.76Z" style="fill: rgb(255, 255, 255); transform-origin: 175.29px 28.81px;" id="elz84kjawyb69" class="animable"></path><path d="M178,26.39a1.55,1.55,0,0,1,1.43-.8c1.23,0,1.78.91,1.78,2.28v1.89c0,1.47-.7,2.43-2.17,2.43s-2.15-1-2.15-2.43v-.65h1v.71c0,.87.35,1.39,1.12,1.39s1.13-.52,1.13-1.39V28c0-.87-.36-1.39-1.13-1.39a1,1,0,0,0-1.08,1v.22h-1l.26-5.34h3.79v1h-2.83Z" style="fill: rgb(255, 255, 255); transform-origin: 179.05px 27.34px;" id="elczkupgz7ynl" class="animable"></path><path d="M186.52,24.78V25h-1v-.24c0-.87-.35-1.38-1.14-1.38s-1.16.52-1.16,1.55v2.16a1.54,1.54,0,0,1,1.55-1c1.23,0,1.78.89,1.78,2.28v1.46c0,1.47-.72,2.43-2.19,2.43s-2.22-1-2.22-2.43V24.85c0-1.52.69-2.47,2.22-2.47S186.52,23.31,186.52,24.78Zm-3.31,3.6v1.44c0,.87.35,1.39,1.14,1.39s1.14-.52,1.14-1.39V28.38c0-.86-.37-1.38-1.14-1.38S183.21,27.52,183.21,28.38Z" style="fill: rgb(255, 255, 255); transform-origin: 184.345px 27.32px;" id="elkgiy1ltqtzk" class="animable"></path><path d="M308.31,183.23a4.14,4.14,0,1,0-4.14,4.14A4.14,4.14,0,0,0,308.31,183.23Z" style="fill: rgb(38, 50, 56); transform-origin: 304.17px 183.23px;" id="el8ou89wamfrt" class="animable"></path><path d="M319.85,176.48c1.8,0,2.51.86,2.51,2.56v.55c0,1.22-.35,2-1.35,2.3,1.12.31,1.55,1.21,1.55,2.48v1a2.38,2.38,0,0,1-2.65,2.71h-2.66V176.48Zm-.32,4.91c1,0,1.56-.33,1.56-1.54v-.68c0-1-.35-1.52-1.28-1.52h-1.27v3.74Zm.38,5.5c.95,0,1.38-.5,1.38-1.58v-1c0-1.29-.52-1.72-1.63-1.72h-1.12v4.32Z" style="fill: rgb(255, 255, 255); transform-origin: 319.918px 182.289px;" id="el5gnld4wl2rh" class="animable"></path><path d="M325.43,188.06V177.65h-2.14v-1.17h5.56v1.17h-2.13v10.41Z" style="fill: rgb(255, 255, 255); transform-origin: 326.07px 182.27px;" id="elx4mboaag1sa" class="animable"></path><path d="M334.86,179.27v1h-1.22v-1.11c0-1.05-.42-1.67-1.36-1.67s-1.36.62-1.36,1.67v6.12c0,1,.43,1.67,1.36,1.67s1.36-.63,1.36-1.67v-1.51h1.22v1.44c0,1.76-.83,2.92-2.61,2.92s-2.6-1.16-2.6-2.92v-6c0-1.75.83-2.91,2.6-2.91S334.86,177.52,334.86,179.27Z" style="fill: rgb(255, 255, 255); transform-origin: 332.255px 182.215px;" id="elaa7lg8zoh1h" class="animable"></path><path d="M352.82,179.29c0,3.49-3.93,4.75-3.94,7.41v.19h3.8v1.17H347.6v-1c0-3.74,3.93-4.47,3.93-7.73,0-1.19-.4-1.82-1.36-1.82s-1.36.68-1.36,1.7v1H347.6v-.94c0-1.77.81-2.95,2.6-2.95S352.82,177.52,352.82,179.29Z" style="fill: rgb(255, 255, 255); transform-origin: 350.21px 182.19px;" id="el0yi1cy18xnr" class="animable"></path><path d="M359.32,179.22v.37A2.28,2.28,0,0,1,358,182a2.35,2.35,0,0,1,1.32,2.45v.86c0,1.79-.92,2.9-2.73,2.9s-2.73-1.11-2.73-2.9v-.86A2.35,2.35,0,0,1,355.2,182a2.26,2.26,0,0,1-1.34-2.38v-.37a2.73,2.73,0,1,1,5.46,0Zm-4.18,0v.56c0,1.12.54,1.62,1.45,1.62s1.46-.5,1.46-1.62v-.56c0-1.19-.55-1.74-1.46-1.74S355.14,178.07,355.14,179.26Zm0,5v1c0,1.19.53,1.75,1.45,1.75s1.44-.56,1.46-1.75v-1c0-1.13-.5-1.67-1.46-1.67S355.14,183.14,355.14,184.27Z" style="fill: rgb(255, 255, 255); transform-origin: 356.591px 182.365px;" id="el7aph3qzmmgh" class="animable"></path><path d="M363.74,178.28v3.66c0,1.12-.53,1.87-1.65,1.87s-1.65-.75-1.65-1.87v-3.66c0-1.11.52-1.87,1.65-1.87S363.74,177.17,363.74,178.28Zm-2.48-.05V182c0,.63.23,1.05.83,1.05s.83-.42.83-1.05v-3.77c0-.63-.25-1.06-.83-1.06S361.26,177.6,361.26,178.23Zm6.31-1.75L363,188.06h-.78l4.57-11.58Zm1.87,6.12v3.64c0,1.13-.52,1.87-1.66,1.87s-1.65-.74-1.65-1.87V182.6c0-1.11.53-1.85,1.65-1.85S369.44,181.49,369.44,182.6Zm-2.48,0v3.76c0,.63.24,1.06.82,1.06s.83-.43.83-1.06v-3.76c0-.63-.25-1-.83-1S367,181.92,367,182.55Z" style="fill: rgb(255, 255, 255); transform-origin: 364.94px 182.26px;" id="ellyj6vk9iwva" class="animable"></path><circle cx="304.17" cy="207.38" r="4.14" style="fill: rgb(145, 145, 145); transform-origin: 304.17px 207.38px;" id="el0gv5scwc6bta" class="animable"></circle><path d="M320.13,207.21l-1.94,5H317l2.33-6-2.18-5.61h1.34l1.78,4.64,1.81-4.64h1.21l-2.17,5.61,2.31,6h-1.35Z" style="fill: rgb(255, 255, 255); transform-origin: 320.215px 206.405px;" id="el3fm0siu41f" class="animable"></path><path d="M327,200.62c1.82,0,2.58.93,2.58,2.65v.94c0,1.28-.44,2.07-1.44,2.39,1.06.31,1.46,1.17,1.46,2.41v1.81a3,3,0,0,0,.23,1.39h-1.31a3.22,3.22,0,0,1-.21-1.41V209c0-1.31-.61-1.72-1.69-1.72h-.91v5h-1.29V200.62Zm-.33,5.46c1,0,1.64-.33,1.64-1.59v-1.1c0-1-.38-1.59-1.34-1.59h-1.26v4.28Z" style="fill: rgb(255, 255, 255); transform-origin: 327.125px 206.45px;" id="eleryzvyt2u64" class="animable"></path><path d="M333.51,200.62c1.82,0,2.59,1.08,2.59,2.83v1.39c0,1.84-.86,2.8-2.69,2.8h-1.14v4.57H331V200.62Zm-.1,5.86c1,0,1.42-.45,1.42-1.56v-1.53c0-1.06-.38-1.59-1.32-1.59h-1.24v4.68Z" style="fill: rgb(255, 255, 255); transform-origin: 333.55px 206.415px;" id="elkrksqdpmto" class="animable"></path><path d="M350,202.72a3.36,3.36,0,0,1-1.61.5v-1.06a2,2,0,0,0,2-1.54h.89v11.59H350Z" style="fill: rgb(255, 255, 255); transform-origin: 349.835px 206.415px;" id="elmx8yykjermk" class="animable"></path><path d="M358.41,203.44c0,3.49-3.92,4.75-3.94,7.41V211h3.81v1.18H353.2v-1c0-3.74,3.92-4.46,3.92-7.72,0-1.2-.4-1.82-1.36-1.82s-1.35.67-1.35,1.7v1H353.2v-1c0-1.77.81-2.94,2.6-2.94S358.41,201.67,358.41,203.44Z" style="fill: rgb(255, 255, 255); transform-origin: 355.805px 206.29px;" id="el66by0cyj16e" class="animable"></path><path d="M362.85,202.43v3.65c0,1.13-.53,1.87-1.65,1.87s-1.66-.74-1.66-1.87v-3.65c0-1.11.53-1.87,1.66-1.87S362.85,201.32,362.85,202.43Zm-2.48-.05v3.77c0,.63.23,1,.83,1s.82-.41.82-1v-3.77c0-.63-.24-1.06-.82-1.06S360.37,201.75,360.37,202.38Zm6.3-1.76-4.56,11.59h-.78l4.57-11.59Zm1.87,6.13v3.64c0,1.12-.51,1.87-1.65,1.87s-1.66-.75-1.66-1.87v-3.64c0-1.11.53-1.86,1.66-1.86S368.54,205.64,368.54,206.75Zm-2.48-.05v3.75c0,.63.25,1.06.83,1.06s.83-.43.83-1.06V206.7c0-.63-.25-1-.83-1S366.06,206.07,366.06,206.7Z" style="fill: rgb(255, 255, 255); transform-origin: 364.04px 206.41px;" id="elrlct9yho3y" class="animable"></path><circle cx="304.17" cy="231.52" r="4.14" style="fill: rgb(255, 255, 255); transform-origin: 304.17px 231.52px;" id="el528n57w7sci" class="animable"></circle><path d="M317.25,236.35V224.77h1.29v10.41h3.31v1.17Z" style="fill: rgb(255, 255, 255); transform-origin: 319.55px 230.56px;" id="eligj38orcz5g" class="animable"></path><path d="M323.69,236.35V225.94h-2.14v-1.17h5.56v1.17H325v10.41Z" style="fill: rgb(255, 255, 255); transform-origin: 324.33px 230.56px;" id="elr6fqvwmria8" class="animable"></path><path d="M333.12,227.57v1H331.9V227.5c0-1-.41-1.67-1.36-1.67s-1.35.63-1.35,1.67v6.12c0,1,.43,1.67,1.35,1.67s1.36-.63,1.36-1.67v-1.5h1.22v1.44c0,1.75-.82,2.91-2.61,2.91s-2.6-1.16-2.6-2.91v-6c0-1.76.83-2.92,2.6-2.92S333.12,225.81,333.12,227.57Z" style="fill: rgb(255, 255, 255); transform-origin: 330.515px 230.555px;" id="ele48vjqraxo" class="animable"></path><path d="M352.82,227.58c0,3.49-3.93,4.75-3.94,7.42v.18h3.8v1.17H347.6v-1c0-3.74,3.93-4.47,3.93-7.73,0-1.19-.4-1.82-1.36-1.82s-1.36.68-1.36,1.71v1H347.6v-.94c0-1.77.81-2.95,2.6-2.95S352.82,225.81,352.82,227.58Z" style="fill: rgb(255, 255, 255); transform-origin: 350.21px 230.485px;" id="elcn654ss0wtp" class="animable"></path><path d="M359.32,227.52v.36a2.27,2.27,0,0,1-1.32,2.38,2.35,2.35,0,0,1,1.32,2.45v.86c0,1.79-.92,2.9-2.73,2.9s-2.73-1.11-2.73-2.9v-.86a2.35,2.35,0,0,1,1.34-2.45,2.26,2.26,0,0,1-1.34-2.38v-.36a2.73,2.73,0,1,1,5.46,0Zm-4.18,0v.56c0,1.13.54,1.62,1.45,1.62s1.46-.49,1.46-1.62v-.56c0-1.19-.55-1.74-1.46-1.74S355.14,226.36,355.14,227.55Zm0,5v1c0,1.19.53,1.75,1.45,1.75s1.44-.56,1.46-1.75v-1c0-1.12-.5-1.67-1.46-1.67S355.14,231.44,355.14,232.56Z" style="fill: rgb(255, 255, 255); transform-origin: 356.591px 230.63px;" id="el6lvzcd17b9h" class="animable"></path><path d="M363.74,226.57v3.66c0,1.12-.53,1.87-1.65,1.87s-1.65-.75-1.65-1.87v-3.66c0-1.11.52-1.87,1.65-1.87S363.74,225.46,363.74,226.57Zm-2.48,0v3.78c0,.62.23,1,.83,1s.83-.42.83-1v-3.78c0-.63-.25-1.06-.83-1.06S361.26,225.89,361.26,226.52Zm6.31-1.75L363,236.35h-.78l4.57-11.58Zm1.87,6.12v3.64c0,1.13-.52,1.87-1.66,1.87s-1.65-.74-1.65-1.87v-3.64c0-1.11.53-1.85,1.65-1.85S369.44,229.78,369.44,230.89Zm-2.48,0v3.76c0,.63.24,1.06.82,1.06s.83-.43.83-1.06v-3.76c0-.63-.25-1-.83-1S367,230.21,367,230.84Z" style="fill: rgb(255, 255, 255); transform-origin: 364.94px 230.575px;" id="ell5butze7c6a" class="animable"></path><rect x="328.77" y="25.21" width="2.71" height="6.79" style="fill: rgb(255, 255, 255); transform-origin: 330.125px 28.605px;" id="elxhx0l9y91" class="animable"></rect><rect x="332.39" y="23.85" width="2.71" height="8.15" style="fill: rgb(255, 255, 255); transform-origin: 333.745px 27.925px;" id="elbh0ijpe8dh" class="animable"></rect><rect x="336.01" y="22.88" width="2.71" height="9.11" style="fill: rgb(255, 255, 255); transform-origin: 337.365px 27.435px;" id="el68exjrk4t2s" class="animable"></rect><rect x="339.63" y="21.2" width="2.71" height="10.79" style="fill: rgb(255, 255, 255); transform-origin: 340.985px 26.595px;" id="el4upvgrlm3ub" class="animable"></rect><path d="M376,31.81H359.66v-10H376Zm-15.39-.91H375V22.76H360.56Z" style="fill: rgb(255, 255, 255); transform-origin: 367.83px 26.81px;" id="el6p2blhhwvp6" class="animable"></path><rect x="361.92" y="23.74" width="8.6" height="6.18" style="fill: rgb(255, 255, 255); transform-origin: 366.22px 26.83px;" id="elub6wsozr25e" class="animable"></rect><rect x="375.38" y="25.66" width="2.05" height="2.35" style="fill: rgb(255, 255, 255); transform-origin: 376.405px 26.835px;" id="el5kxc9vbemec" class="animable"></rect><path d="M353.68,29.64a.71.71,0,0,1-.31-.08c-3.31-2-5.5-.15-5.59-.07a.61.61,0,0,1-.86-.06.59.59,0,0,1,.06-.85c.11-.11,2.91-2.51,7-.07a.61.61,0,0,1-.32,1.13Z" style="fill: rgb(255, 255, 255); transform-origin: 350.519px 28.5296px;" id="elhpmw5t20vt9" class="animable"></path><path d="M354.91,27.6a.61.61,0,0,1-.31-.09c-4.79-2.85-8-.09-8.05-.07a.61.61,0,0,1-.86-.05.61.61,0,0,1,.06-.86s3.92-3.36,9.47-.06a.61.61,0,0,1-.31,1.13Z" style="fill: rgb(255, 255, 255); transform-origin: 350.526px 26.3094px;" id="ely0jhhb5h13" class="animable"></path><path d="M356,25.23a.61.61,0,0,1-.31-.09c-6.07-3.61-10.1-.21-10.27-.06a.61.61,0,0,1-.86-.06.61.61,0,0,1,.06-.86s4.84-4.14,11.7-.06a.61.61,0,0,1,.21.83A.63.63,0,0,1,356,25.23Z" style="fill: rgb(255, 255, 255); transform-origin: 350.512px 23.766px;" id="elwrrzzrs6vp" class="animable"></path><circle cx="350.33" cy="30.66" r="1.53" style="fill: rgb(255, 255, 255); transform-origin: 350.33px 30.66px;" id="eljyccxtao4u" class="animable"></circle><circle cx="182.52" cy="296.14" r="9.2" style="fill: rgb(61, 44, 141); transform-origin: 182.52px 296.14px;" id="elvgsx73gmaef" class="animable"></circle><path d="M208.54,351c1.81,0,2.52.86,2.52,2.56v.55c0,1.22-.35,2-1.36,2.3,1.13.31,1.56,1.21,1.56,2.48v1a2.39,2.39,0,0,1-2.65,2.71H206V351Zm-.31,4.91c1,0,1.56-.33,1.56-1.54v-.67c0-1-.35-1.53-1.28-1.53h-1.27v3.74Zm.38,5.5c.95,0,1.37-.5,1.37-1.58v-1c0-1.29-.51-1.72-1.62-1.72h-1.12v4.32Z" style="fill: rgb(255, 255, 255); transform-origin: 208.642px 356.808px;" id="el7lm1mia564g" class="animable"></path><path d="M213.73,351V362.6h-1.29V351Z" style="fill: rgb(255, 255, 255); transform-origin: 213.085px 356.8px;" id="elgqrs0g7go8l" class="animable"></path><path d="M216.72,362.6V352.19h-2.13V351h5.54v1.17H218V362.6Z" style="fill: rgb(255, 255, 255); transform-origin: 217.36px 356.8px;" id="elioq6argdbnj" class="animable"></path><path d="M226.13,353.81v1.05H224.9v-1.11c0-1-.41-1.67-1.35-1.67s-1.36.63-1.36,1.67v6.12c0,1,.43,1.67,1.36,1.67s1.35-.63,1.35-1.67v-1.51h1.23v1.44c0,1.76-.83,2.92-2.62,2.92s-2.59-1.16-2.59-2.92v-6c0-1.75.82-2.91,2.59-2.91S226.13,352.06,226.13,353.81Z" style="fill: rgb(255, 255, 255); transform-origin: 223.525px 356.805px;" id="elmax8c9wi0sh" class="animable"></path><path d="M227.21,353.81c0-1.77.87-2.91,2.64-2.91s2.67,1.14,2.67,2.91v6c0,1.76-.88,2.92-2.67,2.92s-2.64-1.16-2.64-2.92Zm1.27,6.06c0,1.06.45,1.67,1.37,1.67s1.38-.61,1.38-1.67v-6.12c0-1-.43-1.67-1.38-1.67s-1.37.63-1.37,1.67Z" style="fill: rgb(255, 255, 255); transform-origin: 229.865px 356.815px;" id="elx608i2ojesd" class="animable"></path><path d="M235,351V362.6h-1.29V351Z" style="fill: rgb(255, 255, 255); transform-origin: 234.355px 356.8px;" id="elqz2hligphuo" class="animable"></path><path d="M237.5,362.6h-1.16V351H238l2.68,8.37V351h1.15V362.6h-1.34l-3-9.36Z" style="fill: rgb(255, 255, 255); transform-origin: 239.085px 356.8px;" id="elyfn3qttro1q" class="animable"></path><path d="M316,351.07c1.4.2,2,1.29,2,2.84v.32h-1.21v-.4c0-1-.41-1.65-1.34-1.65s-1.32.63-1.32,1.65c0,2.6,3.88,2.61,3.88,5.88,0,1.55-.66,2.66-2.06,2.86v.87H315v-.87c-1.44-.2-2.09-1.29-2.09-2.86V359h1.21v.8c0,1,.43,1.64,1.36,1.64s1.35-.6,1.35-1.64c0-2.58-3.87-2.62-3.87-5.88,0-1.59.65-2.63,2-2.84v-.93H316Z" style="fill: rgb(255, 255, 255); transform-origin: 315.46px 356.795px;" id="elwlqotqo373k" class="animable"></path><path d="M327.14,353.83c0,3.49-3.92,4.75-3.93,7.41v.19H327v1.17h-5.08v-1c0-3.74,3.92-4.47,3.92-7.73,0-1.19-.39-1.82-1.35-1.82s-1.36.68-1.36,1.7v1h-1.21v-.94c0-1.77.81-3,2.6-3S327.14,352.06,327.14,353.83Z" style="fill: rgb(255, 255, 255); transform-origin: 324.53px 356.705px;" id="el5isg7uuhzrs" class="animable"></path><path d="M333.49,353.81v.3a2.29,2.29,0,0,1-1.41,2.38,2.32,2.32,0,0,1,1.41,2.4v.9c0,1.77-.83,2.93-2.62,2.93s-2.6-1.16-2.6-2.93V359h1.21v.88c0,1,.43,1.67,1.36,1.67s1.35-.61,1.35-1.78v-.9c0-1.14-.48-1.69-1.45-1.72H330V356h.76a1.39,1.39,0,0,0,1.39-1.59v-.53c0-1.19-.41-1.8-1.35-1.8s-1.36.65-1.36,1.69v.59h-1.21v-.53c0-1.77.83-2.91,2.6-2.91S333.49,352,333.49,353.81Z" style="fill: rgb(255, 255, 255); transform-origin: 330.867px 356.82px;" id="elrw2yatgpmb" class="animable"></path><path d="M335.31,362.6h-.48V361h1.24v1.49l-.64,1.57h-.53Z" style="fill: rgb(255, 255, 255); transform-origin: 335.45px 362.53px;" id="el9hue7kukn0u" class="animable"></path><path d="M342.1,360.27v2.33h-1.26v-2.33H337.1v-1.18l3.59-8.07h1.41v8.07H343v1.18Zm-3.81-1.18h2.55v-5.66Z" style="fill: rgb(255, 255, 255); transform-origin: 340.05px 356.81px;" id="elpsreu461flt" class="animable"></path><path d="M349.33,353.76v.37a2.28,2.28,0,0,1-1.32,2.38,2.35,2.35,0,0,1,1.32,2.45v.86c0,1.79-.93,2.9-2.73,2.9s-2.73-1.11-2.73-2.9V359a2.34,2.34,0,0,1,1.34-2.45,2.26,2.26,0,0,1-1.34-2.38v-.37a2.73,2.73,0,1,1,5.46,0Zm-4.19,0v.56c0,1.13.55,1.62,1.46,1.62s1.46-.49,1.46-1.62v-.56c0-1.19-.55-1.74-1.46-1.74S345.14,352.61,345.14,353.8Zm0,5v1c0,1.19.53,1.75,1.46,1.75s1.44-.56,1.46-1.75v-1c0-1.12-.5-1.67-1.46-1.67S345.14,357.69,345.14,358.81Z" style="fill: rgb(255, 255, 255); transform-origin: 346.6px 356.895px;" id="eln1ncdzs2ah" class="animable"></path><path d="M355.71,353.8V354H354.5v-.29c0-1.05-.43-1.66-1.38-1.66s-1.4.63-1.4,1.87v2.6a1.85,1.85,0,0,1,1.87-1.24c1.49,0,2.15,1.07,2.15,2.74v1.76c0,1.77-.88,2.93-2.65,2.93s-2.66-1.16-2.66-2.93v-5.91c0-1.84.82-3,2.66-3S355.71,352,355.71,353.8Zm-4,4.33v1.74c0,1,.43,1.67,1.37,1.67s1.37-.63,1.37-1.67v-1.74c0-1-.44-1.67-1.37-1.67S351.72,357.09,351.72,358.13Z" style="fill: rgb(255, 255, 255); transform-origin: 353.085px 356.79px;" id="el8rqxyzk8adw" class="animable"></path><path d="M358.19,361v1.6H357V361Z" style="fill: rgb(255, 255, 255); transform-origin: 357.595px 361.8px;" id="eloai1bkcruxo" class="animable"></path><path d="M360.81,355.73a1.87,1.87,0,0,1,1.72-1c1.49,0,2.15,1.1,2.15,2.75v2.27c0,1.77-.85,2.93-2.62,2.93s-2.6-1.16-2.6-2.93V359h1.21v.86c0,1,.43,1.67,1.36,1.67s1.36-.63,1.36-1.67v-2.25c0-1-.43-1.67-1.36-1.67a1.26,1.26,0,0,0-1.31,1.24v.27h-1.21l.32-6.44h4.57v1.16H361Z" style="fill: rgb(255, 255, 255); transform-origin: 362.07px 356.845px;" id="el89jcumgifx2" class="animable"></path><path d="M368.29,353.12a3.6,3.6,0,0,1-1.61.5v-1.06a2,2,0,0,0,2-1.54h.89V362.6h-1.27Z" style="fill: rgb(255, 255, 255); transform-origin: 368.125px 356.81px;" id="el0svyqpbips2g" class="animable"></path><g id="el9364qf9o64w"><circle cx="182.52" cy="357.77" r="9.2" style="fill: rgb(38, 50, 56); transform-origin: 182.52px 357.77px; transform: rotate(-9.24deg);" class="animable"></circle></g><path d="M322.59,412.7c1.41.2,2.05,1.29,2.05,2.84v.32h-1.2v-.4c0-1-.42-1.65-1.34-1.65s-1.33.63-1.33,1.65c0,2.6,3.89,2.62,3.89,5.88,0,1.55-.66,2.66-2.07,2.86v.88h-1.06v-.88c-1.44-.2-2.08-1.29-2.08-2.86v-.72h1.21v.8c0,1,.43,1.64,1.35,1.64s1.36-.6,1.36-1.64c0-2.58-3.87-2.62-3.87-5.88,0-1.59.64-2.63,2-2.84v-.93h1.06Z" style="fill: rgb(255, 255, 255); transform-origin: 322.055px 418.425px;" id="elnsaa1hn27v8" class="animable"></path><path d="M333.8,415.4v.36a2.28,2.28,0,0,1-1.32,2.38,2.35,2.35,0,0,1,1.32,2.45v.86c0,1.79-.93,2.9-2.73,2.9s-2.73-1.11-2.73-2.9v-.86a2.34,2.34,0,0,1,1.34-2.45,2.26,2.26,0,0,1-1.34-2.38v-.36a2.73,2.73,0,1,1,5.46,0Zm-4.19,0V416c0,1.13.55,1.62,1.46,1.62s1.46-.49,1.46-1.62v-.56c0-1.19-.55-1.74-1.46-1.74S329.61,414.24,329.61,415.43Zm0,5v1c0,1.19.53,1.75,1.46,1.75s1.44-.56,1.46-1.75v-1c0-1.12-.5-1.67-1.46-1.67S329.61,419.32,329.61,420.44Z" style="fill: rgb(255, 255, 255); transform-origin: 331.07px 418.51px;" id="elv7p06dpsu4c" class="animable"></path><path d="M335.54,424.23h-.48v-1.6h1.24v1.49l-.64,1.57h-.53Z" style="fill: rgb(255, 255, 255); transform-origin: 335.68px 424.16px;" id="elr91wkoepupp" class="animable"></path><path d="M337.53,415.44c0-1.77.87-2.91,2.65-2.91s2.66,1.14,2.66,2.91v6c0,1.77-.88,2.93-2.66,2.93s-2.65-1.16-2.65-2.93Zm1.27,6.06c0,1,.45,1.67,1.38,1.67s1.37-.63,1.37-1.67v-6.12c0-1.06-.43-1.69-1.37-1.69s-1.38.63-1.38,1.69Z" style="fill: rgb(255, 255, 255); transform-origin: 340.185px 418.45px;" id="el64wsr71r9rg" class="animable"></path><path d="M344,415.44c0-1.77.88-2.91,2.65-2.91s2.66,1.14,2.66,2.91v6c0,1.77-.88,2.93-2.66,2.93s-2.65-1.16-2.65-2.93Zm1.27,6.06c0,1,.45,1.67,1.38,1.67s1.37-.63,1.37-1.67v-6.12c0-1.06-.43-1.69-1.37-1.69s-1.38.63-1.38,1.69Z" style="fill: rgb(255, 255, 255); transform-origin: 346.655px 418.45px;" id="eleamsd6co3pw" class="animable"></path><path d="M350.41,415.44c0-1.77.88-2.91,2.65-2.91s2.66,1.14,2.66,2.91v6c0,1.77-.88,2.93-2.66,2.93s-2.65-1.16-2.65-2.93Zm1.27,6.06c0,1,.45,1.67,1.38,1.67s1.37-.63,1.37-1.67v-6.12c0-1.06-.43-1.69-1.37-1.69s-1.38.63-1.38,1.69Z" style="fill: rgb(255, 255, 255); transform-origin: 353.065px 418.45px;" id="elsnxa7k0n35" class="animable"></path><path d="M358.19,422.63v1.6H357v-1.6Z" style="fill: rgb(255, 255, 255); transform-origin: 357.595px 423.43px;" id="elimitlx02zth" class="animable"></path><path d="M364.73,415.46c0,3.49-3.92,4.75-3.94,7.41v.19h3.81v1.17h-5.09v-1c0-3.74,3.93-4.47,3.93-7.73,0-1.19-.4-1.82-1.36-1.82s-1.36.68-1.36,1.71v1h-1.21v-.94c0-1.77.82-3,2.6-3S364.73,413.69,364.73,415.46Z" style="fill: rgb(255, 255, 255); transform-origin: 362.12px 418.34px;" id="elg4y08bnozv" class="animable"></path><path d="M368.29,414.75a3.6,3.6,0,0,1-1.61.5v-1.06a2,2,0,0,0,2-1.54h.89v11.58h-1.27Z" style="fill: rgb(255, 255, 255); transform-origin: 368.125px 418.44px;" id="eldnmuye48p85" class="animable"></path><circle cx="182.52" cy="419.4" r="9.2" style="fill: rgb(145, 145, 145); transform-origin: 182.52px 419.4px;" id="elt1pi44iubj7" class="animable"></circle><path d="M207.52,413c1.84,0,2.61.94,2.61,2.68v1a2.18,2.18,0,0,1-1.46,2.4c1.07.32,1.47,1.19,1.47,2.44v1.82a2.88,2.88,0,0,0,.24,1.4h-1.32a3,3,0,0,1-.22-1.42v-1.83c0-1.32-.62-1.74-1.7-1.74h-.92v5h-1.3V413Zm-.33,5.51c1,0,1.65-.33,1.65-1.6v-1.12c0-1.05-.38-1.6-1.35-1.6h-1.27v4.32Z" style="fill: rgb(255, 255, 255); transform-origin: 207.65px 418.875px;" id="elhk1p1nyrqoa" class="animable"></path><path d="M212.8,413v11.69h-1.3V413Z" style="fill: rgb(255, 255, 255); transform-origin: 212.15px 418.845px;" id="elg0sy30m4xj" class="animable"></path><path d="M216.69,413c1.84,0,2.62,1.09,2.62,2.86v1.4c0,1.85-.87,2.82-2.72,2.82h-1.15v4.61h-1.3V413Zm-.1,5.91c1,0,1.44-.45,1.44-1.56v-1.56c0-1.07-.39-1.6-1.34-1.6h-1.25v4.72Z" style="fill: rgb(255, 255, 255); transform-origin: 216.725px 418.845px;" id="elxhn03dy7arn" class="animable"></path><path d="M222.89,413c1.83,0,2.62,1.09,2.62,2.86v1.4c0,1.85-.87,2.82-2.72,2.82h-1.16v4.61h-1.3V413Zm-.1,5.91c1,0,1.43-.45,1.43-1.56v-1.56c0-1.07-.38-1.6-1.33-1.6h-1.26v4.72Z" style="fill: rgb(255, 255, 255); transform-origin: 222.92px 418.845px;" id="eldvv59jlu22w" class="animable"></path><path d="M226.53,424.66V413h1.3v10.5h3.34v1.19Z" style="fill: rgb(255, 255, 255); transform-origin: 228.85px 418.845px;" id="el3074vjz2371" class="animable"></path><path d="M236.31,418.15v1.17h-2.85v4.15H237v1.19h-4.8V413H237v1.19h-3.5v4Z" style="fill: rgb(255, 255, 255); transform-origin: 234.6px 418.83px;" id="elele9ss7bfnw" class="animable"></path></g><g id="freepik--Floor--inject-231" class="animable" style="transform-origin: 252px 460px;"><line x1="410" y1="460" x2="480" y2="460" style="fill: none; stroke: rgb(38, 50, 56); stroke-linecap: round; stroke-linejoin: round; transform-origin: 445px 460px;" id="eldxck1s7t2rw" class="animable"></line><line x1="24" y1="460" x2="400" y2="460" style="fill: none; stroke: rgb(38, 50, 56); stroke-linecap: round; stroke-linejoin: round; transform-origin: 212px 460px;" id="elfsqo8hnlfoj" class="animable"></line></g><g id="freepik--Character--inject-231" class="animable" style="transform-origin: 98.949px 306.214px;"><g id="ellujr866d99"><ellipse cx="101.5" cy="470" rx="57.5" ry="10" style="opacity: 0.2; transform-origin: 101.5px 470px;" class="animable"></ellipse></g><path d="M60,193.9a14.65,14.65,0,0,0-.16,5.72c.57,2.84-1.1,10.92-1.1,10.92l-6.06,37.77-7.3-.66s.82,1.82-.69,4.44-11,7.21-11,7.21,9,8.93,13.45,11.44,8.87,2.44,11.69.31,7.61-10.26,7.61-10.26,2.36-41.34,1.16-50.15a61.78,61.78,0,0,0-4.18-15.5C63.13,194.36,60,193.9,60,193.9Z" style="fill: rgb(255, 255, 255); stroke: rgb(38, 50, 56); stroke-linecap: round; stroke-linejoin: round; transform-origin: 50.8151px 233.268px;" id="eltqn91cpdjji" class="animable"></path><path d="M76.74,443.16s-4.53,7.87-7.35,9.74-8.46,6.13-11.82,7-6.18,2.71-3.81,4.74,3.94,2.53,12.52,2.89,11.9-2.29,17.87-2.4,11.72,1.6,13.23-1.28S96.07,449,96.07,449,83.47,441.48,76.74,443.16Z" style="fill: rgb(255, 255, 255); stroke: rgb(38, 50, 56); stroke-linecap: round; stroke-linejoin: round; transform-origin: 75.3534px 455.239px;" id="elfbfovm5ys8e" class="animable"></path><path d="M97.38,463.82a8.45,8.45,0,0,0,.42-3.68c-3.6,1.93-8.54.86-14.4.86-6.41,0-7.51,3.3-18.67,3.66-8.3.28-10.83-1.47-11.59-2.39-.44.71-.34,1.51.62,2.34,2.38,2,3.94,2.53,12.52,2.89s11.9-2.29,17.87-2.4S95.87,466.7,97.38,463.82Z" style="fill: rgb(255, 255, 255); stroke: rgb(38, 50, 56); stroke-linecap: round; stroke-linejoin: round; transform-origin: 75.3691px 463.837px;" id="eluweqbglwol9" class="animable"></path><path d="M114.06,452.87a48.72,48.72,0,0,1-2.19,8.09c-1.25,2.88-4.76,10-7.06,12.07s-4.09,6.93-.11,7.8c12.37,2.69,18.4-2.16,22-4s3.78-6.3,4-8.38,2.82-1.87,2.21-7.05-1-10.63-1-10.63S118.77,454.86,114.06,452.87Z" style="fill: rgb(255, 255, 255); stroke: rgb(38, 50, 56); stroke-linecap: round; stroke-linejoin: round; transform-origin: 117.675px 466.197px;" id="elxpjpcghbres" class="animable"></path><path d="M126.41,474.18c-2.75,2.38-8.79,4.58-15.19,4.58-4.88,0-7.63-1.38-8.67-2-.51,1.83-.12,3.61,2.15,4.11,12.37,2.69,18.4-2.16,22-4s3.78-6.3,4-8.38,2.82-1.87,2.21-7.05c-.06-.46-.11-.91-.16-1.36-.69,1.21-1.52,2.7-2.13,3.93C129.34,466.49,129.15,471.8,126.41,474.18Z" style="fill: rgb(255, 255, 255); stroke: rgb(38, 50, 56); stroke-linecap: round; stroke-linejoin: round; transform-origin: 117.677px 470.872px;" id="el4gy9av1tfy4" class="animable"></path><path d="M67.4,272.19s2.66,60.46,3,67.73,3.49,49,4.31,51.34,3.91,43.81,3.93,44.85.06,2.86.06,2.86-3.1,1.09-3.09,1.87-.45,3.65-.45,3.65.58,3.1,7.9,5.83,15.07.5,15.07.5.19-3.9.16-5.46-.92-7.77-.94-8.55,3.61-29.93,3.38-42.65S99.1,372.9,99,366.93s-.11-48.82-.11-48.82l2.9,2.28S108.17,386,109.07,393s5.51,45.87,5.55,48.2-.16,5.46-.16,5.46l-2.81,2.65.09,4.67s4.44,1.74,9.93,3.45,10.85-3.31,10.85-3.31a19.24,19.24,0,0,0,.7-4.17c0-1.55-.11-6.23-.11-6.23s3.82-32.53,3.14-41.35-2.74-36.56-2.74-36.56l4.17-56.17-2.53-39.17s-10.91-.06-27.78.25-39.84-5.51-39.84-5.51Z" style="fill: rgb(38, 50, 56); stroke: rgb(38, 50, 56); stroke-linecap: round; stroke-linejoin: round; transform-origin: 102.54px 361.498px;" id="elg5vugj6ygla" class="animable"></path><path d="M80.57,281.16s11.84,8.1,36.65,1.67l-.09-4.67a105.07,105.07,0,0,1-22.85-.36c-10.94-1.62-15.63-2.58-15.63-2.58Z" style="fill: rgb(130, 130, 130); stroke: rgb(38, 50, 56); stroke-linecap: round; stroke-linejoin: round; transform-origin: 97.935px 280.265px;" id="ely691teuvtz" class="animable"></path><g id="eldcaku08m3l"><rect x="91.57" y="279.85" width="7.93" height="5.2" style="fill: rgb(255, 255, 255); stroke: rgb(38, 50, 56); stroke-linecap: round; stroke-linejoin: round; transform-origin: 95.535px 282.45px; transform: rotate(3.75deg);" class="animable"></rect></g><path d="M83.36,277.48s5,6.14,35.61,1.43L121,179.55s-18.8-5.89-20.11-6.13-21.31,13.11-21.31,13.11l-2,89.49Z" style="fill: rgb(61, 44, 141); stroke: rgb(38, 50, 56); stroke-linecap: round; stroke-linejoin: round; transform-origin: 99.29px 227.052px;" id="el24thtdv2udl" class="animable"></path><polygon points="92.87 185.61 96.39 192.04 88.14 255.72 95.41 269.87 103.21 256.48 99.14 191.88 106.03 182.94 96.84 180.11 92.87 185.61" style="fill: rgb(115, 115, 115); stroke: rgb(38, 50, 56); stroke-linecap: round; stroke-linejoin: round; transform-origin: 97.085px 224.99px;" id="el5wkof43iv8" class="animable"></polygon><polygon points="96.39 192.04 95.95 195.43 99.24 193.43 99.14 191.88 106.03 182.94 104.04 182.32 94.3 188.23 96.39 192.04" style="fill: rgb(38, 50, 56); transform-origin: 100.165px 188.875px;" id="elaiaznwxi2kc" class="animable"></polygon><polygon points="102.61 246.95 88.23 254.99 88.14 255.72 91.07 261.43 103.1 254.71 102.61 246.95" style="fill: rgb(38, 50, 56); transform-origin: 95.62px 254.19px;" id="el9k9aucf2gtj" class="animable"></polygon><polygon points="100.39 211.76 99.89 203.86 94.42 207.18 93.27 216.07 100.39 211.76" style="fill: rgb(38, 50, 56); transform-origin: 96.83px 209.965px;" id="elj0nxwgpab1" class="animable"></polygon><polygon points="90.34 238.7 101.63 231.32 101.12 223.27 91.53 229.55 90.34 238.7" style="fill: rgb(38, 50, 56); transform-origin: 95.985px 230.985px;" id="ele4hrer8twpl" class="animable"></polygon><path d="M88.36,182.22l0,27.53s-1.75,46.51-1.58,55.86-.35,23.64-2.06,29.64-12.45,15-15.53,16.9-8.52,3-8.52,3,4-36.17,4.1-46.3-1.29-56.33-1.39-61.79S58.47,195.23,60,192.6s17-9.13,18.27-9.16,9.27-4.32,9.27-4.32Z" style="fill: rgb(255, 255, 255); stroke: rgb(38, 50, 56); stroke-linecap: round; stroke-linejoin: round; transform-origin: 74.0299px 247.135px;" id="elttflwtbstfq" class="animable"></path><path d="M87.52,179.12a89.65,89.65,0,0,1-8.73,4.21l-1.66,9.74,4.77,5.37-4.31,5.79s2.36,15.28,4.82,22c1.32,3.6,3.29,10.19,4.84,15.51.47-15.36,1.09-32,1.09-32l0-27.53Z" style="fill: rgb(255, 255, 255); stroke: rgb(38, 50, 56); stroke-linecap: round; stroke-linejoin: round; transform-origin: 82.735px 210.43px;" id="ell4mbne9slwr" class="animable"></path><path d="M109.94,166.49l6.84,7.68s-.14,6.5-4.75,10.22a63.81,63.81,0,0,1-8,5.59l-5.33-7.43-3.5-.27-2.86,7.14-3-7.48s-2.72-7,2.91-11.48,9.77-5.37,11.33-5.4S109.94,166.49,109.94,166.49Z" style="fill: rgb(61, 44, 141); stroke: rgb(38, 50, 56); stroke-linecap: round; stroke-linejoin: round; transform-origin: 102.732px 177.52px;" id="elby82ossgatm" class="animable"></path><path d="M71.53,147.77s1,11.23,2,13,2.91,5.31,2.91,5.31.1,5.62,1.93,7.63,5.84,11.9,9.16,11.84,7.6-3.46,7.6-3.46l1.58,2.79a35.63,35.63,0,0,1,5-4.7c2-1.31,6.74-8.55,7.47-10.61a9.86,9.86,0,0,0,.71-3.08s-.41-8.68-1.25-12.49-1-11.48-4.67-18.06-14.67-5.86-20.76-3.45S70.89,140.89,70.69,144,71.53,147.77,71.53,147.77Z" style="fill: rgb(186, 186, 186); stroke: rgb(38, 50, 56); stroke-linecap: round; stroke-linejoin: round; transform-origin: 90.2772px 158.157px;" id="el32m7nrhj2im" class="animable"></path><path d="M92.44,145.61c2.33,1.74.09,4.85,2.4,5.32,2,.4,8.74-2.1,12.36-6.05a31.39,31.39,0,0,0-3.18-8.94c-3.7-6.57-14.67-5.86-20.76-3.45S70.89,140.89,70.69,144s.84,3.81.84,3.81a30.73,30.73,0,0,0,7.94,1.14C83.3,148.84,90.11,143.86,92.44,145.61Z" style="fill: rgb(38, 50, 56); stroke: rgb(38, 50, 56); stroke-linecap: round; stroke-linejoin: round; transform-origin: 88.9322px 140.869px;" id="elb1c07ej02s" class="animable"></path><path d="M102.37,157.69s-.35-5.36,2.71-5.42,3.68,5.81,2.71,8.64a4.55,4.55,0,0,1-3.52,3.13s.58,3.82-.15,5.88" style="fill: none; stroke: rgb(38, 50, 56); stroke-linecap: round; stroke-linejoin: round; transform-origin: 105.285px 161.095px;" id="eln3ury1vegj" class="animable"></path><path d="M94,172.41c-2.57-1-6.65-.39-6.65-.39-.24,1-2.27,1.83-2.27,1.83l-4.85-.17s-.05,1.16-.09,2.68c2.06,3.63,5,9.24,7.46,9.19,3.32-.06,7.6-3.46,7.6-3.46l.1.19a8.36,8.36,0,0,1,2.42-1.77C98.69,180.24,96.52,173.38,94,172.41Z" style="fill: rgb(38, 50, 56); stroke: rgb(38, 50, 56); stroke-linecap: round; stroke-linejoin: round; transform-origin: 89.0481px 178.693px;" id="eldntz8fxkj4r" class="animable"></path><path d="M83.05,177.46s6.14.4,8.64-2.71" style="fill: none; stroke: gray; stroke-linecap: round; stroke-linejoin: round; transform-origin: 87.37px 176.113px;" id="elqz50mym6ou" class="animable"></path><path d="M75.87,163.35c2.34-1.33,4.65,1.12,4.65,1.12s-.62,7.94-.34,9.21,4.09.18,4.85.17S87.32,173,87.3,172l.24-1" style="fill: rgb(186, 186, 186); stroke: rgb(38, 50, 56); stroke-linecap: round; stroke-linejoin: round; transform-origin: 81.705px 168.625px;" id="el5yx8y8ef4df" class="animable"></path><path d="M88.77,165.48c.2.74,0,1.45-.55,1.58S87.16,166.7,87,166s.05-1.44.55-1.57S88.58,164.75,88.77,165.48Z" style="fill: rgb(38, 50, 56); transform-origin: 87.8965px 165.744px;" id="elw23fgsapz" class="animable"></path><path d="M79.65,165.82c.19.74-.06,1.45-.56,1.58S78,167,77.84,166.3s0-1.44.55-1.57S79.45,165.09,79.65,165.82Z" style="fill: rgb(38, 50, 56); transform-origin: 78.7473px 166.064px;" id="elolfqjs1u85e" class="animable"></path><path d="M83.92,162.77s1.77-2.93,7.79-2.39" style="fill: none; stroke: rgb(38, 50, 56); stroke-linecap: round; stroke-linejoin: round; transform-origin: 87.815px 161.542px;" id="elzmf130mrg5i" class="animable"></path><path d="M116.78,174.17s-4.4,15.14-8.4,37.81-2.79,75.1-2.15,81.58,5.39,11.33,9.6,14.11,22,7.39,28.44,7.27c0,0-2.83-55.52-2.89-59.15s10.29-62,10.24-64.85-24.38-12.54-27.52-13.79S116.78,174.17,116.78,174.17Z" style="fill: rgb(255, 255, 255); stroke: rgb(38, 50, 56); stroke-linecap: round; stroke-linejoin: round; transform-origin: 128.583px 244.556px;" id="eltj1pl6qzwzd" class="animable"></path><path d="M116.94,197.28l8.23-4.56-1.07-15.57c-3.13-1.24-7.32-3-7.32-3s-4.4,15.14-8.4,37.81c-1.45,8.17-2.21,20.2-2.57,32.56,0,0,0,0,0,0,0-1,17.7-40.84,17.7-40.84Z" style="fill: rgb(255, 255, 255); stroke: rgb(38, 50, 56); stroke-linecap: round; stroke-linejoin: round; transform-origin: 115.49px 209.335px;" id="elyvhwrmxvd7e" class="animable"></path><path d="M33.67,259.3s0-1.92,3.57-7.7,8.15-3.95,8.15-3.95,3.45,3.59-1.4,7.83A15.25,15.25,0,0,1,33.67,259.3Z" style="fill: rgb(38, 50, 56); stroke: rgb(38, 50, 56); stroke-linecap: round; stroke-linejoin: round; transform-origin: 40.1249px 253.338px;" id="elmoc1kcb4fqr" class="animable"></path><path d="M38.9,258c1.52-1,7.76-2.19,7.5-8.62-.46-.79-1-1.7-1.53-2.53-1.34-2-2.14-3.59-2.14-3.59s-6.48-2.84-8,.3a91.82,91.82,0,0,0,2.19,10.19A23.85,23.85,0,0,0,38.9,258Z" style="fill: rgb(186, 186, 186); stroke: rgb(38, 50, 56); stroke-linecap: round; stroke-linejoin: round; transform-origin: 40.5689px 250.041px;" id="elxg1vcczrn8t" class="animable"></path><polygon points="37.29 229.89 30.66 207.94 44.69 208.46 51.12 233.8 37.29 229.89" style="fill: rgb(38, 50, 56); stroke: rgb(38, 50, 56); stroke-linecap: round; stroke-linejoin: round; transform-origin: 40.89px 220.87px;" id="el9wcr3nria8l" class="animable"></polygon><path d="M38.7,250.64a15.54,15.54,0,0,0,3.62-1.36c1.28-.8,2.25-4.72,2.25-4.72a29.9,29.9,0,0,0,5.67-2.44c2.82-1.61,5.4-3,5.11-4.25s-2.6-.21-2.6-.21l.73-2.61-.56-2.59s0-1-.05-2.33S51,227.31,51,227.31a6.29,6.29,0,0,0,.23-1.83c0-1-.56-2.06-1.59-2s-13.17,4.13-13.17,4.13l-1.67-6.2s-1.68,7.56-1.61,11.45S36,248.16,36,248.94" style="fill: rgb(186, 186, 186); stroke: rgb(38, 50, 56); stroke-linecap: round; stroke-linejoin: round; transform-origin: 44.2801px 236.025px;" id="elq8li5oyrazc" class="animable"></path><line x1="51" y1="227.31" x2="40.43" y2="231.13" style="fill: none; stroke: rgb(38, 50, 56); stroke-linecap: round; stroke-linejoin: round; transform-origin: 45.715px 229.22px;" id="elek4tgnrzltn" class="animable"></line><line x1="52.92" y1="232.46" x2="41.56" y2="236.05" style="fill: none; stroke: rgb(38, 50, 56); stroke-linecap: round; stroke-linejoin: round; transform-origin: 47.24px 234.255px;" id="el69natni36ir" class="animable"></line><line x1="43.46" y1="240.95" x2="52.75" y2="237.66" style="fill: none; stroke: rgb(38, 50, 56); stroke-linecap: round; stroke-linejoin: round; transform-origin: 48.105px 239.305px;" id="el2ie5ln6l6j9" class="animable"></line><path d="M52.69,248.31s4.18,1.48,5.53,4.57" style="fill: none; stroke: rgb(38, 50, 56); stroke-linecap: round; stroke-linejoin: round; transform-origin: 55.455px 250.595px;" id="el7h9ee5jr23f" class="animable"></path><path d="M146.92,293.81s-6.75,7-6.72,8.72a63.67,63.67,0,0,1-.58,8.61c-.43,3-2.62,4.47-1.12,5.67a3.39,3.39,0,0,0,3.44.18s-3.17,1-2.65,3,8.14,1.82,8.14,1.82l7.76-5.79c1.7-1.26,1.32-8.63,1.25-12.56s-.13-6.63-.13-6.63Z" style="fill: rgb(186, 186, 186); stroke: rgb(38, 50, 56); stroke-linecap: round; stroke-linejoin: round; transform-origin: 147.253px 307.812px;" id="elm57en5mjwbh" class="animable"></path><polyline points="141.94 316.99 143.73 311.87 144.14 306.99" style="fill: none; stroke: rgb(38, 50, 56); stroke-linecap: round; stroke-linejoin: round; transform-origin: 143.04px 311.99px;" id="elkdv7cw6hezg" class="animable"></polyline><path d="M141.74,204.36s-3.81,19.29-3.76,21.88,8.39,33.09,8.39,33.09l-4,37.47a72.64,72.64,0,0,0,7.07,3c1.82.48,8.88,2.69,8.88,2.69s7.19-32.59,8.43-35.73-.27-15.32-.31-17.13-10.82-52.78-10.84-53.56-.9-6.74-2.47-7.49-7.56-1.68-7.56-1.68" style="fill: rgb(255, 255, 255); stroke: rgb(38, 50, 56); stroke-linecap: round; stroke-linejoin: round; transform-origin: 152.609px 244.695px;" id="el8066vcmr759" class="animable"></path></g><defs>     <filter id="active" height="200%">         <feMorphology in="SourceAlpha" result="DILATED" operator="dilate" radius="2"></feMorphology>                <feFlood flood-color="#32DFEC" flood-opacity="1" result="PINK"></feFlood>        <feComposite in="PINK" in2="DILATED" operator="in" result="OUTLINE"></feComposite>        <feMerge>            <feMergeNode in="OUTLINE"></feMergeNode>            <feMergeNode in="SourceGraphic"></feMergeNode>        </feMerge>    </filter>    <filter id="hover" height="200%">        <feMorphology in="SourceAlpha" result="DILATED" operator="dilate" radius="2"></feMorphology>                <feFlood flood-color="#ff0000" flood-opacity="0.5" result="PINK"></feFlood>        <feComposite in="PINK" in2="DILATED" operator="in" result="OUTLINE"></feComposite>        <feMerge>            <feMergeNode in="OUTLINE"></feMergeNode>            <feMergeNode in="SourceGraphic"></feMergeNode>        </feMerge>            <feColorMatrix type="matrix" values="0   0   0   0   0                0   1   0   0   0                0   0   0   0   0                0   0   0   1   0 "></feColorMatrix>    </filter></defs></svg>